<svg width="265" height="180" viewBox="0 0 265 180" fill="none" xmlns="http://www.w3.org/2000/svg">
<g clip-path="url(#clip0_12_1780)">
<path d="M160.77 100.914C161.222 100.914 161.654 101.094 161.973 101.413C162.293 101.732 162.472 102.164 162.472 102.616V119.074H195.106C195.557 119.074 195.99 119.253 196.309 119.572C196.628 119.891 196.807 120.324 196.807 120.775C196.807 121.226 196.628 121.659 196.309 121.978C195.99 122.297 195.557 122.476 195.106 122.476H162.472V179.393H159.069V102.616C159.069 102.164 159.248 101.732 159.567 101.413C159.887 101.094 160.319 100.914 160.77 100.914Z" fill="#E6E6E6"/>
<path d="M69.9536 179.006L63.8189 179.176C62.8871 179.224 61.9652 178.965 61.194 178.44C60.5278 177.944 60.2223 177.274 60.3562 176.602L61.5634 170.535C61.7909 169.39 63.1934 168.525 64.8979 168.478L68.2858 168.384C69.9903 168.337 71.4385 169.124 71.7288 170.254L73.269 176.245C73.4399 176.909 73.1717 177.595 72.5339 178.127C71.7929 178.694 70.8867 179.003 69.9536 179.006Z" fill="#3F3D56"/>
<path d="M107.268 178.833L101.133 179.002C100.201 179.05 99.2796 178.792 98.5084 178.266C97.8422 177.771 97.5366 177.101 97.6706 176.428L98.8778 170.361C99.1053 169.217 100.508 168.352 102.212 168.305L105.6 168.211C107.305 168.164 108.753 168.95 109.043 170.081L110.583 176.072C110.754 176.736 110.486 177.422 109.848 177.953C109.107 178.52 108.201 178.829 107.268 178.833Z" fill="#3F3D56"/>
<path d="M48.6516 127.328C48.3714 127.208 48.1407 126.995 47.9979 126.725C47.855 126.455 47.8085 126.145 47.8661 125.845C47.9236 125.546 48.0818 125.275 48.3143 125.077C48.5469 124.879 48.8399 124.767 49.145 124.759L118.888 122.833C119.064 122.828 119.239 122.858 119.404 122.92C119.568 122.983 119.718 123.078 119.846 123.199C119.974 123.319 120.077 123.464 120.148 123.625C120.22 123.786 120.26 123.959 120.265 124.134C120.274 124.489 120.142 124.834 119.898 125.092C119.654 125.35 119.318 125.5 118.963 125.511L49.219 127.436C49.0243 127.442 48.8306 127.405 48.6516 127.328Z" fill="#3F3D56"/>
<path d="M74.3907 104.24L54.4547 104.79L56.3134 172.099L76.2493 171.549L74.3907 104.24Z" fill="#E6E6E6"/>
<path d="M74.8963 103.031L71.0641 113.47L71.0675 161.032L75.7371 162.371L74.8963 103.031Z" fill="#CCCCCC"/>
<path d="M64.3187 86.6495C60.589 86.7554 57.7434 93.2101 57.8118 95.7288L57.9377 100.289L71.4427 99.9159L71.3168 95.3559C71.2461 92.8372 68.0486 86.5494 64.3187 86.6495Z" fill="#3F3D56"/>
<path d="M54.7133 132.665C54.0165 132.683 53.3407 132.424 52.8344 131.945C52.3281 131.466 52.0325 130.806 52.0124 130.109L51.8075 122.688C51.7882 121.991 52.0467 121.315 52.526 120.808C53.0053 120.302 53.6661 120.006 54.3632 119.987C55.0603 119.968 55.7364 120.226 56.2429 120.706C56.7494 121.185 57.0448 121.846 57.0641 122.543L57.269 129.964C57.2874 130.661 57.0287 131.336 56.5496 131.843C56.0705 132.349 55.4101 132.645 54.7133 132.665Z" fill="#3F3D56"/>
<path d="M59.7724 104.95L59.678 100.046L60.9642 100.014L61.0585 104.902L62.2244 176.155L60.9379 176.19" fill="#3F3D56"/>
<path d="M76.6766 116.419L53.5579 117.057C51.3497 114.365 51.1492 102.892 55.7575 100.709L57.5647 97.6404L71.4976 96.9602L73.1259 100.191C75.4183 102.142 76.6003 113.542 76.6766 116.419Z" fill="#E6E6E6"/>
<path d="M67.9751 110.917L62.1288 111.078C61.0006 111.109 60.0414 109.646 59.9909 107.816C59.9404 105.986 60.8173 104.472 61.9455 104.441L67.7918 104.279C68.92 104.248 69.8791 105.712 69.9297 107.541C69.9802 109.371 69.1032 110.886 67.9751 110.917Z" fill="#F9A826"/>
<path d="M56.6537 144.013L44.6026 152.526L42.4973 171.72L56.5556 167.023L56.6537 144.013Z" fill="#E6E6E6"/>
<path d="M112.874 103.416L92.9383 103.966L94.7969 171.275L114.733 170.725L112.874 103.416Z" fill="#E6E6E6"/>
<path d="M93.4158 103.255L97.5178 113.592L98.7486 161.138L94.1152 162.598L93.4158 103.255Z" fill="#CCCCCC"/>
<path d="M122.844 84.7283C124.287 84.7283 125.457 83.1596 125.457 81.2244C125.457 79.2893 124.287 77.7205 122.844 77.7205C121.401 77.7205 120.231 79.2893 120.231 81.2244C120.231 83.1596 121.401 84.7283 122.844 84.7283Z" fill="#E6E6E6"/>
<path d="M102.413 85.8359C98.6835 85.9419 95.8379 92.3965 95.9063 94.9153L96.0322 99.4753L109.537 99.1023L109.411 94.5423C109.341 92.0236 106.143 85.7359 102.413 85.8359Z" fill="#3F3D56"/>
<path d="M106.275 106.485L106.181 101.581L107.467 101.549L107.561 106.438L108.727 177.69L107.44 177.726" fill="#3F3D56"/>
<path d="M114.771 115.605L91.6524 116.244C91.2493 113.807 91.7708 102.438 93.852 99.8954L95.6592 96.8268L109.592 96.1466L111.22 99.3776C115.334 99.7128 116.773 110.886 114.771 115.605Z" fill="#E6E6E6"/>
<path d="M106.098 111.127L100.252 111.289C99.1234 111.32 98.1579 109.626 98.0996 107.514C98.0412 105.402 98.9119 103.658 100.04 103.627L105.886 103.466C107.014 103.434 107.98 105.128 108.038 107.24C108.097 109.352 107.226 111.096 106.098 111.127Z" fill="#F9A826"/>
<path d="M113.859 139.093L125.509 148.146L126.736 167.417L112.907 162.083L113.859 139.093Z" fill="#E6E6E6"/>
<path d="M110.606 49.8391C98.105 49.8391 83.7385 35.967 71.0276 42.558C32.5426 62.5139 37.8403 29.1208 26.7838 16.7016L27.1468 15.9736C35.5171 47.9018 43.0905 98.7783 71.1947 41.7111C78.2348 27.4159 101.34 49.5124 114.941 48.8605L114.965 49.7356C113.528 49.8049 112.075 49.8394 110.606 49.8391Z" fill="#F2F2F2"/>
<path d="M140.61 51.8022C130.644 59.3497 110.816 56.9653 104.663 69.8938C86.0331 109.038 70.0947 79.2195 53.7827 75.9948L53.6324 75.1953C69.9619 76.5497 87.4774 74.4482 104.285 69.1178C119.475 64.3011 133.026 57.1358 143.475 48.4046L144.022 49.088C142.919 50.0104 141.781 50.9152 140.61 51.8022Z" fill="#F2F2F2"/>
<path d="M32.211 50.0836C33.6541 50.0836 34.824 48.5149 34.824 46.5797C34.824 44.6446 33.6541 43.0758 32.211 43.0758C30.7678 43.0758 29.598 44.6446 29.598 46.5797C29.598 48.5149 30.7678 50.0836 32.211 50.0836Z" fill="#E6E6E6"/>
<path d="M113.255 21.6254C114.698 21.6254 115.868 20.0567 115.868 18.1215C115.868 16.1864 114.698 14.6176 113.255 14.6176C111.812 14.6176 110.642 16.1864 110.642 18.1215C110.642 20.0567 111.812 21.6254 113.255 21.6254Z" fill="#E6E6E6"/>
<path d="M56.1339 64.2255C54.9393 65.0215 53.7166 63.127 54.9342 62.3664C56.1288 61.5705 57.3514 63.4649 56.1339 64.2255Z" fill="#E6E6E6"/>
<path d="M100.368 2.05059C99.1732 2.84655 97.9505 0.952094 99.1681 0.191476C100.363 -0.604441 101.585 1.29002 100.368 2.05059Z" fill="#E6E6E6"/>
<path d="M126.437 38.9137L125.677 38.747L125.844 37.9867L125.337 37.8756L125.17 38.636L124.41 38.4695L124.299 38.9762L125.059 39.143L124.893 39.903L125.4 40.014L125.566 39.2537L126.326 39.4204L126.437 38.9137Z" fill="#E6E6E6"/>
<path d="M56.7725 13.437C58.6008 13.437 60.083 11.9549 60.083 10.1265C60.083 8.29815 58.6008 6.81598 56.7725 6.81598C54.9441 6.81598 53.4619 8.29815 53.4619 10.1265C53.4619 11.9549 54.9441 13.437 56.7725 13.437Z" fill="#FF6584"/>
<path d="M80.9869 5.93612C77.2572 6.04205 74.4116 12.4967 74.48 15.0155L74.6059 19.5755L88.1109 19.2025L87.9849 14.6426C87.9143 12.1238 84.7168 5.83606 80.9869 5.93612Z" fill="#3F3D56"/>
<path d="M89.0285 178.609L82.8938 178.778C81.962 178.826 81.0401 178.568 80.2689 178.042C79.6027 177.547 79.2971 176.877 79.4311 176.204L80.6383 170.137C80.8658 168.993 82.2683 168.128 83.9729 168.081L87.3608 167.987C89.0653 167.94 90.5134 168.726 90.8037 169.857L92.3438 175.848C92.5147 176.512 92.2466 177.198 91.6088 177.729C90.8678 178.296 89.9615 178.605 89.0285 178.609Z" fill="#3F3D56"/>
<path d="M91.7641 34.9652L71.8281 35.5157L75.5852 171.573L95.5211 171.023L91.7641 34.9652Z" fill="#E6E6E6"/>
<path d="M83.787 100.825L83.6927 95.9207L84.9789 95.8889L85.0732 100.777L86.2391 172.03L84.9526 172.065" fill="#3F3D56"/>
<path d="M95.6891 47.4174L68.6768 48.1633C68.2058 45.3164 68.8151 32.0318 71.2468 29.0616L71.9132 25.5161L90.5646 25.001L91.5405 28.4565C94.2188 30.7357 95.5999 44.0563 95.6891 47.4174Z" fill="#E6E6E6"/>
<path d="M91.1542 25.4194L71.907 25.9509C71.1966 25.9705 70.61 25.5975 70.5968 25.1178C70.595 25.0487 70.6051 24.9798 70.6267 24.9141L73.6163 15.7038C73.7443 15.3094 74.2539 15.0197 74.8487 15.0033L87.6129 14.6509C88.2077 14.6345 88.7325 14.8955 88.8821 15.2823L92.3755 24.3135C92.5542 24.7755 92.1415 25.2561 91.4538 25.3872C91.355 25.4059 91.2548 25.4167 91.1542 25.4194Z" fill="#E6E6E6"/>
<path d="M73.8057 100.199C73.6319 100.125 73.4677 100.03 73.3167 99.9164C73.1001 99.7645 72.9213 99.5651 72.7937 99.3334C72.6661 99.1017 72.5933 98.8439 72.5807 98.5797L71.8814 73.2527C71.8526 72.2042 72.8791 71.3223 74.1697 71.2866L91.4002 70.8107C92.6911 70.7748 93.7644 71.5991 93.7935 72.6476L94.4929 97.9747C94.4949 98.2392 94.4364 98.5006 94.3219 98.739C94.2073 98.9774 94.0397 99.1864 93.8319 99.35C93.3716 99.7248 92.798 99.933 92.2044 99.9407L74.9741 100.416C74.5735 100.43 74.1748 100.356 73.8057 100.199Z" fill="#3F3D56"/>
<path d="M84.834 23.7894L78.9876 23.9509C77.8595 23.982 76.9055 22.7074 76.8614 21.1099C76.8173 19.5125 77.6995 18.1871 78.8276 18.156L84.6739 17.9945C85.8021 17.9634 86.7561 19.238 86.8002 20.8355C86.8443 22.433 85.9621 23.7583 84.834 23.7894Z" fill="#F9A826"/>
<path d="M223.028 174.006H216.223V124.551C221.915 124.143 226.193 122.4 226.193 120.311C226.193 117.919 220.584 115.981 213.666 115.981C206.747 115.981 201.138 117.919 201.138 120.311C201.138 122.42 205.499 124.176 211.274 124.562V174.006H204.468C203.812 174.006 203.183 174.266 202.719 174.73C202.254 175.195 201.994 175.824 201.994 176.48C201.994 177.137 202.254 177.766 202.719 178.23C203.183 178.694 203.812 178.955 204.468 178.955H223.028C223.684 178.955 224.314 178.694 224.778 178.23C225.242 177.766 225.503 177.137 225.503 176.48C225.503 175.824 225.242 175.195 224.778 174.73C224.314 174.266 223.684 174.006 223.028 174.006Z" fill="#E6E6E6"/>
<path d="M209.368 148.899L207.132 151.335L196.673 143.872L199.972 140.277L209.368 148.899Z" fill="#A0616A"/>
<path d="M203.652 155.328C203.674 155.873 203.804 156.408 204.034 156.902C204.264 157.397 204.59 157.84 204.993 158.207L205.091 158.299L208.023 155.104L212.298 150.445L209.142 147.547L208.572 148.17L208.513 148.234L205.673 149.577L205.071 149.863L204.968 149.911L204.741 152.344V152.346C204.371 152.746 204.084 153.216 203.897 153.728C203.71 154.24 203.626 154.784 203.652 155.328Z" fill="#2F2E41"/>
<path d="M220.949 173.2L217.785 174.161L212.573 162.417L217.242 160.998L220.949 173.2Z" fill="#A0616A"/>
<path d="M212.447 178.99L212.486 179.121L222.686 176.022L221.441 171.923L220.635 172.168L220.551 172.193L216.759 171.845L216.646 171.836L215.211 173.816C214.159 174.135 213.276 174.86 212.758 175.831C212.239 176.801 212.127 177.938 212.447 178.99Z" fill="#2F2E41"/>
<path d="M194.863 111.707C194.863 111.707 174.666 131.208 187.434 137.244H191.381C192.239 134.455 193.557 131.83 195.282 129.477C195.655 128.989 197.052 129.088 197.439 128.613C199.808 125.709 202.376 123.216 204.149 123.315L203.725 136.788L203.038 141.594C202.678 144.079 212.852 165.772 212.852 165.772L219.248 163.259C219.248 163.259 212.585 145.391 212.507 142.815L217.846 114.493L194.863 111.707Z" fill="#2F2E41"/>
<path d="M193.179 112.669C193.282 112.816 193.416 112.938 193.573 113.026C193.83 113.171 194.109 113.275 194.399 113.332C198.946 114.365 213.802 116.504 217.658 115.484C218.132 115.36 218.441 115.186 218.541 114.957C218.864 114.234 218.823 111.179 218.633 107.49C218.599 106.798 217.837 106.05 217.791 105.327C217.759 104.784 218.443 104.274 218.406 103.723C218.155 99.9921 217.83 96.1908 217.612 93.7877C217.475 92.2429 217.381 91.2771 217.381 91.2771L219.727 76.4859L219.617 76.305L219.493 76.2433L211.93 72.4991L211.518 71.4463C211.398 71.1432 211.191 70.8828 210.922 70.6988C210.653 70.5148 210.335 70.4157 210.009 70.4142L205.027 70.3936C204.769 70.3922 204.514 70.4525 204.283 70.5695C204.053 70.6865 203.853 70.8569 203.702 71.0664L202.352 72.9362L193.426 78.6577L193.461 78.763L197.649 91.5083L197.669 92.5015V92.5038L197.825 100.491L197.392 101.574L197.88 103.35C197.88 103.35 197.656 105.425 196.454 106.968C195.365 108.368 193.978 109.829 193.351 111.014V111.016C193.003 111.671 192.886 112.238 193.179 112.669Z" fill="#F9A826"/>
<path d="M186.465 136.085L187.544 137.449C187.544 137.449 197.473 144.396 197.814 145.045L199.383 146.53L203.18 142.471L201.205 139.996C199.625 138.016 197.584 136.453 195.26 135.445L192.234 132.76L186.465 136.085Z" fill="#2F2E41"/>
<path d="M222.229 117.276L220.421 99.7748L219.944 92.5719L225.004 91.6568C225.004 91.6568 224.804 96.8071 225.467 99.7129C226.121 102.58 225.553 116.892 225.513 117.274C225.885 117.607 226.147 118.044 226.264 118.528C226.382 119.013 226.35 119.522 226.172 119.988C225.994 120.453 225.679 120.854 225.269 121.137C224.858 121.42 224.372 121.572 223.873 121.572C223.374 121.572 222.888 121.421 222.477 121.138C222.066 120.856 221.751 120.455 221.572 119.99C221.394 119.524 221.361 119.015 221.479 118.531C221.596 118.046 221.857 117.609 222.229 117.276Z" fill="#A0616A"/>
<path d="M216.202 90.7714L217.612 93.7878L218.104 94.8382L219.429 101.777L220.091 102.48L220.661 104.748L220.928 104.693L225.757 103.693L227.165 103.402C227.482 102.874 227.607 102.252 227.519 101.642C227.43 101.032 227.134 100.471 226.68 100.054C226.584 99.967 226.503 99.8823 226.506 99.8022C226.586 94.9755 226.291 86.1621 223.624 82.5347C222.778 81.3835 222.27 80.2369 221.53 79.4359C221.528 79.4336 221.528 79.4313 221.526 79.4313L219.727 76.4859L219.617 76.3051L219.493 76.2433L216.202 90.7714Z" fill="#F9A826"/>
<path d="M207.908 69.1539C211.569 69.1539 214.537 66.1859 214.537 62.5248C214.537 58.8636 211.569 55.8957 207.908 55.8957C204.247 55.8957 201.279 58.8636 201.279 62.5248C201.279 66.1859 204.247 69.1539 207.908 69.1539Z" fill="#A0616A"/>
<path d="M215.78 61.0984C215.974 59.9844 216.125 58.5402 215.569 57.2564C215.099 56.176 213.923 55.163 212.616 55.2996C212.678 55.0558 212.671 54.7995 212.596 54.5592C212.522 54.319 212.381 54.1043 212.192 53.9389C211.766 53.6048 211.27 53.3717 210.742 53.2571C209.513 52.8961 208.241 52.5218 206.927 52.5148C205.453 52.5068 204.146 53.0119 203.345 53.9025L203.325 53.9313L203.085 54.5047C203.053 54.5816 203.005 54.6507 202.943 54.7071C202.882 54.7636 202.809 54.8061 202.73 54.8318C202.65 54.858 202.566 54.8663 202.483 54.8561C202.4 54.8459 202.32 54.8175 202.249 54.7729C202.172 54.7251 202.083 54.6984 201.992 54.6955C201.9 54.6925 201.81 54.7134 201.729 54.7561C201.649 54.7987 201.581 54.8617 201.532 54.9387C201.483 55.0158 201.455 55.1043 201.451 55.1954L201.438 55.4401L201.094 55.3029C201.008 55.2681 200.914 55.2569 200.822 55.2705C200.73 55.2841 200.643 55.3221 200.571 55.3804C200.498 55.4387 200.443 55.5154 200.41 55.6024C200.377 55.6894 200.368 55.7836 200.383 55.8754L200.429 56.1664C200.355 56.153 200.279 56.1546 200.206 56.1711C200.132 56.1877 200.063 56.2188 200.002 56.2627C199.915 56.3269 199.85 56.4172 199.817 56.5206C199.784 56.624 199.785 56.7352 199.82 56.838C200.087 57.5994 200.543 58.2806 201.145 58.8176C201.415 59.0619 201.718 59.2677 202.045 59.4292C202.113 59.4635 202.183 59.4959 202.256 59.5265C204.898 60.6592 207.725 61.2995 210.597 61.4158C210.325 61.9339 210.15 62.4969 210.079 63.0776C210.04 63.4071 210.092 63.741 210.229 64.0432C210.366 64.3453 210.583 64.6042 210.857 64.7917C210.975 64.8596 211.1 64.9167 211.229 64.9623C211.352 65.0078 211.472 65.0631 211.586 65.1277C211.754 65.2291 211.892 65.373 211.986 65.5449C212.08 65.7168 212.128 65.9105 212.123 66.1065C212.118 66.3025 212.062 66.4937 211.96 66.661C211.857 66.8282 211.713 66.9654 211.54 67.0588C211.54 67.0588 212.034 67.6611 212.113 67.6508C212.427 67.5795 212.711 67.4115 212.925 67.1704C214.36 65.7764 215.321 63.7347 215.78 61.0984Z" fill="#2F2E41"/>
<path d="M244.801 163.57L245.09 157.092C248.093 155.487 251.443 154.639 254.849 154.622C250.162 158.454 250.747 165.841 247.569 170.994C246.566 172.594 245.215 173.947 243.618 174.954C242.02 175.96 240.217 176.595 238.341 176.81L234.418 179.211C233.88 176.211 233.999 173.129 234.766 170.179C235.533 167.229 236.931 164.48 238.863 162.122C239.96 160.81 241.218 159.641 242.607 158.644C243.546 161.121 244.801 163.57 244.801 163.57Z" fill="#F2F2F2"/>
<path d="M264.524 179.52C264.524 179.583 264.512 179.645 264.488 179.704C264.464 179.762 264.428 179.815 264.384 179.86C264.339 179.904 264.286 179.94 264.227 179.964C264.169 179.988 264.107 180 264.043 180H0.480455C0.353031 180 0.230824 179.949 0.140721 179.859C0.0506185 179.769 0 179.647 0 179.52C0 179.392 0.0506185 179.27 0.140721 179.18C0.230824 179.09 0.353031 179.039 0.480455 179.039H264.043C264.107 179.039 264.169 179.051 264.227 179.075C264.286 179.099 264.339 179.135 264.384 179.179C264.428 179.224 264.464 179.277 264.488 179.335C264.512 179.394 264.524 179.456 264.524 179.52Z" fill="#CCCCCC"/>
<path d="M113.368 131.021C112.671 131.039 111.996 130.78 111.489 130.301C110.983 129.822 110.687 129.162 110.667 128.465L110.462 121.044C110.444 120.348 110.703 119.672 111.182 119.166C111.661 118.661 112.322 118.366 113.018 118.347C113.715 118.327 114.39 118.585 114.897 119.064C115.403 119.542 115.699 120.202 115.719 120.899L115.924 128.32C115.942 129.017 115.683 129.692 115.204 130.199C114.725 130.705 114.065 131.001 113.368 131.021Z" fill="#3F3D56"/>
<path d="M229.322 158.143C225.328 158.143 220.95 157.992 216.189 157.69C191.562 156.127 159.663 150.689 126.367 142.381C93.0719 134.073 62.3579 123.885 39.8836 113.696C28.9357 108.732 20.5333 104.034 14.91 99.7304C8.9563 95.175 6.3521 91.2041 7.16936 87.9287C8.76178 81.5476 22.8619 80.1516 34.41 80.1041L34.4139 81.0321C18.5553 81.0972 9.19948 83.6263 8.06987 88.1534C6.63092 93.9194 18.3663 102.921 40.2668 112.851C62.6918 123.018 93.3492 133.186 126.592 141.481C159.835 149.776 191.675 155.204 216.248 156.764C240.245 158.289 254.834 155.856 256.273 150.09C257.467 145.302 249.592 138.25 234.097 130.231L234.524 129.407C245.782 135.234 258.851 143.59 257.173 150.314C256.356 153.59 252.191 155.871 244.796 157.096C240.58 157.793 235.401 158.143 229.322 158.143Z" fill="#CCCCCC"/>
<path d="M17.3405 152.064C14.1711 152.064 12.1106 151.277 11.1986 149.711C9.4002 146.624 12.4122 141.206 20.1509 133.61L20.8009 134.272C13.6125 141.329 10.4871 146.646 12.0004 149.244C12.9579 150.887 15.8077 151.476 20.2435 150.946C24.6468 150.421 30.4824 148.854 37.588 146.29C52.2164 141.01 70.5694 132.105 89.2659 121.214C107.962 110.324 124.761 98.7518 136.57 88.631C138.839 86.6866 140.897 84.8162 142.689 83.072C145.041 80.8381 147.21 78.42 149.177 75.8407C151.826 72.2441 152.72 69.4744 151.762 67.8308C150.163 65.0856 143.445 65.3438 132.845 68.5586L132.576 67.6705C143.949 64.2218 150.674 64.1184 152.564 67.3638C153.739 69.3801 152.851 72.4174 149.924 76.3911C147.927 79.0112 145.724 81.4676 143.336 83.7368C141.531 85.4948 139.457 87.3784 137.174 89.3356C125.324 99.4919 108.476 111.098 89.7329 122.016C70.9896 132.934 52.5826 141.865 37.9031 147.163C30.7313 149.751 24.8267 151.334 20.3534 151.868C19.3539 151.992 18.3478 152.058 17.3405 152.064Z" fill="#CCCCCC"/>
<path d="M186.711 113.963C184.417 113.918 172.098 113.564 170.078 113.651C169.964 113.251 166.134 118.159 166.041 118.189C165.979 118.255 165.934 118.334 165.909 118.421C165.884 118.508 165.881 118.599 165.9 118.688C165.918 118.776 165.957 118.859 166.015 118.929C166.072 118.998 166.145 119.053 166.228 119.089C166.453 119.225 186.313 118.858 186.554 118.906C186.658 118.904 186.76 118.873 186.847 118.816C186.934 118.76 187.003 118.679 187.047 118.585L187.18 118.287C187.194 117.779 187.36 115.179 187.211 114.735C187.247 114.651 187.263 114.56 187.255 114.469C187.248 114.378 187.218 114.291 187.169 114.214C187.119 114.138 187.051 114.075 186.971 114.031C186.892 113.987 186.802 113.964 186.711 113.963Z" fill="#E6E6E6"/>
<path opacity="0.17" d="M187.18 118.287C187.063 118.567 186.914 118.919 186.554 118.906L166.438 119.132C166.343 119.131 166.249 119.105 166.167 119.058C166.085 119.01 166.016 118.942 165.967 118.86C165.918 118.779 165.892 118.686 165.889 118.591C165.887 118.496 165.909 118.401 165.954 118.317L187.18 118.287Z" fill="black"/>
<path d="M170.172 113.591C169.956 113.216 164.578 86.6056 164.129 86.3831L160.457 81.8913L160.129 81.6445C159.672 81.3938 158.578 81.5633 158.676 82.2604C159.539 86.3961 165.087 109.951 165.209 113.623L165.877 118.302C165.889 118.381 165.917 118.457 165.96 118.525C166.003 118.593 166.06 118.651 166.127 118.696C166.194 118.741 166.27 118.771 166.349 118.784C166.429 118.798 166.51 118.795 166.588 118.775C166.779 118.754 166.962 118.684 167.118 118.571C167.274 118.458 167.398 118.307 167.478 118.132C167.528 117.967 170.424 113.687 170.172 113.591Z" fill="#E6E6E6"/>
<path opacity="0.17" d="M160.456 81.8915L167.479 118.133C167.244 118.727 166.145 119.144 165.889 118.364C165.884 118.363 158.684 82.2827 158.677 82.2611C158.6 81.3928 160.035 81.3653 160.456 81.8915Z" fill="black"/>
<path d="M160.668 83.3735L164.234 88.345L168.238 107.358L166.377 108.981L160.668 83.3735Z" fill="#F9A826"/>
<path d="M184.409 116.527L185.395 116.567C185.411 116.278 185.458 115.992 185.538 115.713C185.686 115.008 185.819 114.17 185.204 114.173C184.786 114.133 184.644 114.662 184.569 115.237C184.55 115.671 184.496 116.102 184.409 116.527Z" fill="#2F2E41"/>
<path d="M178.748 115.2L179.413 115.225L179.735 115.237C179.728 114.884 179.892 114.158 179.493 113.978C179.43 113.951 179.361 113.937 179.292 113.938C178.918 113.916 178.807 114.201 178.773 114.529C178.751 114.727 178.76 114.937 178.754 115.101C178.754 115.135 178.751 115.169 178.748 115.2Z" fill="#2F2E41"/>
<path d="M176.777 115.12L177.446 115.147L177.764 115.16C177.758 114.755 177.971 113.87 177.322 113.858C176.722 113.823 176.799 114.588 176.784 115.021C176.784 115.055 176.781 115.089 176.777 115.12Z" fill="#2F2E41"/>
<path d="M174.807 115.042L175.472 115.067L175.794 115.079C175.788 114.677 176.001 113.793 175.351 113.78C174.751 113.743 174.829 114.507 174.813 114.943C174.813 114.977 174.81 115.011 174.807 115.042Z" fill="#2F2E41"/>
<path d="M172.837 114.962L173.505 114.99L173.823 115.002C173.817 114.597 174.031 113.715 173.381 113.7C172.781 113.666 172.858 114.43 172.843 114.863C172.843 114.897 172.84 114.931 172.837 114.962Z" fill="#2F2E41"/>
<path d="M170.866 114.884L171.531 114.909L171.853 114.922C171.847 114.55 172.026 113.774 171.55 113.641H171.547C171.502 113.628 171.457 113.622 171.411 113.622C171.354 113.617 171.298 113.623 171.244 113.638H171.24C170.826 113.746 170.885 114.396 170.872 114.785C170.872 114.82 170.869 114.854 170.866 114.884Z" fill="#2F2E41"/>
<path d="M182.42 114.674L183.406 114.714C183.406 114.677 183.406 114.637 183.409 114.591C183.434 114.355 183.438 114.118 183.422 113.882C183.388 113.622 183.276 113.418 182.964 113.412C182.645 113.394 182.519 113.598 182.469 113.861C182.458 113.905 182.449 113.951 182.444 113.997V114C182.42 114.241 182.435 114.501 182.42 114.674Z" fill="#2F2E41"/>
<path d="M180.449 114.594L181.436 114.634C181.457 114.368 181.463 114.102 181.454 113.836C181.427 113.564 181.318 113.341 180.994 113.335C180.666 113.313 180.539 113.536 180.489 113.811C180.443 114.077 180.468 114.396 180.449 114.594Z" fill="#2F2E41"/>
<path d="M178.479 114.516L178.773 114.529L179.466 114.557C179.462 114.408 179.49 114.192 179.493 113.978C179.496 113.914 179.494 113.85 179.487 113.786C179.462 113.499 179.36 113.26 179.023 113.254C178.68 113.236 178.559 113.474 178.516 113.765C178.473 114.025 178.497 114.325 178.479 114.516Z" fill="#2F2E41"/>
<path d="M182.438 116.45L183.425 116.487C183.422 116.085 183.632 115.2 182.983 115.188C182.333 115.147 182.475 116.044 182.438 116.45Z" fill="#2F2E41"/>
<path d="M180.468 116.369L181.454 116.409C181.451 116.004 181.662 115.12 181.012 115.107C180.363 115.07 180.505 115.967 180.468 116.369Z" fill="#2F2E41"/>
<path d="M178.497 116.292L179.484 116.329C179.481 116.041 179.589 115.509 179.413 115.225C179.374 115.162 179.32 115.11 179.254 115.076C179.189 115.042 179.115 115.026 179.042 115.03C178.94 115.019 178.839 115.044 178.754 115.101C178.439 115.308 178.528 115.964 178.497 116.292Z" fill="#2F2E41"/>
<path d="M176.527 116.211L177.514 116.252C177.511 115.964 177.616 115.435 177.446 115.147C177.407 115.083 177.352 115.031 177.286 114.996C177.22 114.961 177.146 114.945 177.071 114.949C176.97 114.938 176.868 114.963 176.784 115.021C176.468 115.234 176.558 115.887 176.527 116.211Z" fill="#2F2E41"/>
<path d="M174.556 116.134L175.543 116.171C175.54 115.884 175.648 115.352 175.472 115.067C175.434 115.004 175.379 114.953 175.313 114.918C175.248 114.884 175.175 114.868 175.101 114.872C175 114.861 174.898 114.887 174.813 114.943C174.498 115.15 174.587 115.806 174.556 116.134Z" fill="#2F2E41"/>
<path d="M172.586 116.054L173.573 116.094C173.57 115.806 173.675 115.277 173.505 114.99C173.467 114.925 173.412 114.873 173.345 114.838C173.279 114.803 173.205 114.787 173.13 114.792C173.029 114.781 172.927 114.806 172.843 114.863C172.527 115.076 172.617 115.729 172.586 116.054Z" fill="#2F2E41"/>
<path d="M170.616 115.976L171.602 116.014C171.599 115.726 171.704 115.197 171.531 114.909C171.493 114.846 171.438 114.794 171.373 114.76C171.307 114.726 171.234 114.71 171.16 114.714C171.059 114.704 170.957 114.729 170.872 114.785C170.557 114.996 170.647 115.648 170.616 115.976Z" fill="#2F2E41"/>
<path d="M181.759 113.117L189.28 97.2111L192.124 90.5761L187.655 88.0314C187.655 88.0314 186.132 92.9557 184.542 95.4761C182.972 97.9632 178.751 111.65 178.662 112.024C178.201 112.214 177.809 112.54 177.537 112.957C177.265 113.375 177.126 113.866 177.139 114.364C177.152 114.863 177.316 115.345 177.609 115.749C177.902 116.152 178.311 116.457 178.781 116.623C179.251 116.788 179.761 116.808 180.242 116.678C180.724 116.548 181.154 116.275 181.477 115.895C181.8 115.515 182 115.046 182.05 114.55C182.1 114.054 181.999 113.554 181.759 113.117Z" fill="#A0616A"/>
<path d="M181.714 98.3906L187.401 101.822L188.691 99.8723L189.55 99.4292L193.106 93.3239L196.25 90.1212L200.403 76.8451L194.999 77.6558L194.992 77.6582C194.029 78.1688 193.168 79.0816 191.987 79.8862C188.267 82.4213 185.06 90.6359 183.532 95.2161C183.507 95.2912 183.404 95.3436 183.284 95.3948C182.718 95.637 182.252 96.0674 181.966 96.6132C181.68 97.1589 181.591 97.7867 181.714 98.3906Z" fill="#F9A826"/>
</g>
<defs>
<clipPath id="clip0_12_1780">
<rect width="264.524" height="180" fill="white"/>
</clipPath>
</defs>
</svg>
