<svg width="188" height="180" viewBox="0 0 188 180" fill="none" xmlns="http://www.w3.org/2000/svg">
<g clip-path="url(#clip0_12_1779)">
<path d="M168.93 174.384C169.64 174.429 170.033 173.546 169.495 173.032L169.442 172.819C169.449 172.802 169.456 172.785 169.463 172.768C170.181 171.055 172.616 171.067 173.328 172.782C173.96 174.305 174.765 175.83 174.963 177.44C175.052 178.151 175.012 178.875 174.855 179.572C176.336 176.336 177.115 172.803 177.115 169.25C177.115 168.357 177.067 167.464 176.967 166.574C176.884 165.845 176.771 165.121 176.625 164.404C175.832 160.526 174.115 156.833 171.639 153.748C170.448 153.098 169.456 152.081 168.856 150.861C168.641 150.422 168.472 149.949 168.392 149.467C168.527 149.484 168.903 147.421 168.801 147.295C168.989 147.008 169.327 146.866 169.534 146.586C170.559 145.196 171.972 145.439 172.709 147.328C174.285 148.123 174.3 149.442 173.333 150.71C172.718 151.517 172.634 152.609 172.094 153.473C172.15 153.544 172.207 153.613 172.263 153.684C173.281 154.99 174.162 156.394 174.904 157.868C174.694 156.229 175.004 154.255 175.532 152.982C176.133 151.532 177.26 150.311 178.252 149.057C179.444 147.552 181.887 148.209 182.097 150.118C182.099 150.136 182.101 150.154 182.103 150.173C181.956 150.256 181.812 150.344 181.671 150.438C180.866 150.97 181.144 152.217 182.097 152.364L182.119 152.367C182.066 152.898 181.975 153.424 181.841 153.942C183.114 158.864 180.366 160.657 176.442 160.737C176.356 160.782 176.271 160.826 176.185 160.868C176.582 161.988 176.9 163.136 177.135 164.3C177.346 165.328 177.493 166.367 177.575 167.411C177.677 168.728 177.668 170.051 177.557 171.366L177.564 171.32C177.846 169.872 178.632 168.519 179.774 167.582C181.474 166.185 183.877 165.671 185.711 164.548C186.594 164.007 187.726 164.706 187.572 165.73L187.564 165.779C187.291 165.89 187.025 166.018 186.767 166.163C186.62 166.246 186.475 166.334 186.334 166.427C185.53 166.96 185.808 168.206 186.761 168.354L186.783 168.357C186.798 168.359 186.811 168.361 186.827 168.364C186.358 169.476 185.705 170.509 184.888 171.399C184.092 175.696 180.674 176.104 177.018 174.853H177.015C176.616 176.594 176.032 178.295 175.281 179.916H169.085C169.063 179.847 169.043 179.776 169.023 179.707C169.596 179.743 170.173 179.71 170.737 179.605C170.277 179.041 169.818 178.473 169.358 177.909C169.347 177.898 169.338 177.886 169.329 177.875C169.096 177.587 168.861 177.3 168.627 177.011L168.627 177.011C168.613 176.125 168.719 175.241 168.93 174.384Z" fill="#F2F2F2"/>
<path d="M54.9294 179.591C54.9294 179.818 55.1116 180 55.3385 180H187.129C187.356 180 187.538 179.818 187.538 179.591C187.538 179.364 187.356 179.182 187.129 179.182H55.3385C55.1116 179.182 54.9294 179.364 54.9294 179.591Z" fill="#CCCCCC"/>
<path d="M74.9273 179.826H14.2655C6.86887 179.826 0.851196 173.808 0.851196 166.411V36.0449C0.851196 28.6483 6.86887 22.6306 14.2655 22.6306H74.9273C82.3238 22.6306 88.3414 28.6483 88.3414 36.0449V166.411C88.3414 173.808 82.3238 179.826 74.9273 179.826Z" fill="#3F3D56"/>
<path d="M88.3415 70.5836C88.0285 70.5836 87.774 70.8381 87.774 71.1511V89.3108C87.774 89.6238 88.0285 89.8783 88.3415 89.8783C88.6544 89.8783 88.909 89.6238 88.909 89.3108V71.1511C88.909 70.8381 88.6544 70.5836 88.3415 70.5836Z" fill="#3F3D56"/>
<path d="M87.0647 36.045V166.409C87.0647 172.847 82.0538 178.113 75.7177 178.522H75.7149C75.6213 178.528 75.5276 178.533 75.4311 178.536C75.2637 178.545 75.0963 178.548 74.9261 178.548C74.9261 178.548 74.3018 178.502 73.1612 178.417C72.0092 178.332 70.3323 178.204 68.241 178.037C67.614 177.989 66.9528 177.935 66.2548 177.878C64.8645 177.764 63.3379 177.64 61.7007 177.498C61.0481 177.444 60.3728 177.384 59.6833 177.325C56.1592 177.021 52.2123 176.666 48.0497 176.263C47.346 176.198 46.6367 176.13 45.9216 176.059C45.7344 176.039 45.5442 176.022 45.3541 176.002C42.3862 175.71 2.12817 167.93 2.12817 166.409V36.045C2.12817 29.3401 7.56191 23.9064 14.2668 23.9064H21.5137C22.6713 23.9064 23.602 24.8087 23.7013 25.9636C23.7098 26.0402 23.7184 26.1168 23.7326 26.1934C23.9425 27.3539 25.0066 28.1626 26.1869 28.1626H63.0059C64.1863 28.1626 65.2504 27.3539 65.4603 26.1934C65.4745 26.1168 65.483 26.0402 65.4916 25.9636C65.5909 24.8087 66.5215 23.9064 67.6792 23.9064H74.9261C81.631 23.9064 87.0647 29.3401 87.0647 36.045Z" fill="white"/>
<path d="M0.567489 56.9638C0.25451 56.9638 0 57.2184 0 57.5313V62.0713C0 62.3842 0.254513 62.6387 0.567489 62.6387C0.880466 62.6387 1.13498 62.3842 1.13498 62.0713V57.5313C1.13498 57.2184 0.880466 56.9638 0.567489 56.9638Z" fill="#3F3D56"/>
<path d="M0.567489 70.5836C0.25451 70.5836 0 70.8381 0 71.1511V79.9472C0 80.2602 0.254513 80.5147 0.567489 80.5147C0.880466 80.5147 1.13498 80.2602 1.13498 79.9472V71.1511C1.13498 70.8381 0.880466 70.5836 0.567489 70.5836Z" fill="#3F3D56"/>
<path d="M0.567489 83.0684C0.25451 83.0684 0 83.3229 0 83.6359V92.432C0 92.745 0.254513 92.9995 0.567489 92.9995C0.880466 92.9995 1.13498 92.745 1.13498 92.432V83.6359C1.13498 83.3229 0.880466 83.0684 0.567489 83.0684Z" fill="#3F3D56"/>
<path d="M21.3161 25.8937H10.4634C10.4045 25.8937 10.3567 25.9415 10.3567 26.0004V27.2058C10.3567 27.2647 10.4045 27.3125 10.4634 27.3125H21.3161C21.375 27.3125 21.4228 27.2647 21.4228 27.2058V26.0004C21.4228 25.9415 21.375 25.8937 21.3161 25.8937Z" fill="#E6E6E6"/>
<path d="M69.4724 27.3125C70.0992 27.3125 70.6074 26.8043 70.6074 26.1775C70.6074 25.5506 70.0992 25.0425 69.4724 25.0425C68.8456 25.0425 68.3374 25.5506 68.3374 26.1775C68.3374 26.8043 68.8456 27.3125 69.4724 27.3125Z" fill="#E6E6E6"/>
<path d="M72.5936 27.3125C73.2204 27.3125 73.7286 26.8043 73.7286 26.1775C73.7286 25.5506 73.2204 25.0425 72.5936 25.0425C71.9668 25.0425 71.4586 25.5506 71.4586 26.1775C71.4586 26.8043 71.9668 27.3125 72.5936 27.3125Z" fill="#E6E6E6"/>
<path d="M75.7148 27.3125C76.3417 27.3125 76.8498 26.8043 76.8498 26.1775C76.8498 25.5506 76.3417 25.0425 75.7148 25.0425C75.088 25.0425 74.5798 25.5506 74.5798 26.1775C74.5798 26.8043 75.088 27.3125 75.7148 27.3125Z" fill="#E6E6E6"/>
<path d="M68.5232 102.641H20.3857C19.6274 102.641 19.0104 102.024 19.0104 101.266C19.0104 100.508 19.6274 99.8907 20.3857 99.8907H68.5232C69.2816 99.8907 69.8986 100.508 69.8986 101.266C69.8986 102.024 69.2816 102.641 68.5232 102.641Z" fill="#E6E6E6"/>
<path d="M44.6271 155.936C55.6412 155.936 64.5698 147.008 64.5698 135.994C64.5698 124.98 55.6412 116.051 44.6271 116.051C33.6131 116.051 24.6844 124.98 24.6844 135.994C24.6844 147.008 33.6131 155.936 44.6271 155.936Z" fill="#00BFA6"/>
<path d="M47.7966 129.482C46.1136 129.551 44.2109 129.667 42.9669 130.958C41.8861 132.08 41.6493 133.745 42.7452 134.943C43.8441 136.144 45.5525 136.307 46.8192 137.244C48.3065 138.344 48.0886 140.52 46.6493 141.563C44.9521 142.792 42.7608 142.219 41.2092 141.049C40.8116 140.749 40.4257 141.421 40.8188 141.717C42.2089 142.765 44.0229 143.349 45.7417 142.847C47.2929 142.395 48.4953 141.13 48.6177 139.485C48.676 138.699 48.4528 137.902 47.9645 137.282C47.4491 136.628 46.7067 136.225 45.9563 135.898C44.6643 135.334 42.4399 134.604 42.8155 132.767C43.2708 130.542 45.9801 130.331 47.7966 130.256C48.2927 130.236 48.2953 129.462 47.7966 129.482Z" fill="white"/>
<path d="M44.6743 128.429L44.6002 145.413C44.598 145.911 45.3716 145.911 45.3738 145.413L45.448 128.429C45.4502 127.931 44.6765 127.931 44.6743 128.429Z" fill="white"/>
<path d="M150.287 0H51.9629C48.3561 0 45.4231 2.93294 45.4231 6.53981V73.9185C45.4231 77.5254 48.3561 80.4584 51.9629 80.4584H150.287C153.894 80.4584 156.827 77.5254 156.827 73.9185V6.53981C156.827 2.93294 153.894 0 150.287 0Z" fill="white"/>
<path d="M100.673 40.0627C106.75 40.0627 111.676 35.1365 111.676 29.0598C111.676 22.9831 106.75 18.057 100.673 18.057C94.5962 18.057 89.6701 22.9831 89.6701 29.0598C89.6701 35.1365 94.5962 40.0627 100.673 40.0627Z" fill="#00BFA6"/>
<path d="M102.76 24.1498C101.398 24.206 99.8649 24.2923 98.8347 25.3059C97.9812 26.1455 97.6828 27.4525 98.467 28.441C99.2927 29.4818 100.666 29.6793 101.744 30.3444C102.414 30.7578 102.857 31.3841 102.872 32.1889C102.885 32.9424 102.538 33.6463 101.956 34.1186C100.53 35.2772 98.585 34.7976 97.2357 33.7843C96.9702 33.5849 96.7128 34.0325 96.9753 34.2296C98.0929 35.0689 99.5317 35.5563 100.922 35.1952C102.202 34.8628 103.233 33.8559 103.372 32.5104C103.518 31.0924 102.587 30.1268 101.38 29.5728C100.276 29.0665 98.3404 28.527 98.5228 26.954C98.7549 24.954 101.203 24.7297 102.76 24.6656C103.091 24.652 103.093 24.1361 102.76 24.1498Z" fill="white"/>
<path d="M100.393 23.2146L100.331 37.3664C100.33 37.6983 100.846 37.6987 100.847 37.3664L100.909 23.2146C100.91 22.8826 100.395 22.8822 100.393 23.2146Z" fill="white"/>
<path d="M150.287 0H51.9629C48.3561 0 45.4231 2.93294 45.4231 6.53981V73.9185C45.4231 77.5254 48.3561 80.4584 51.9629 80.4584H150.287C153.894 80.4584 156.827 77.5254 156.827 73.9185V6.53981C156.827 2.93294 153.894 0 150.287 0ZM156.139 73.9185C156.139 77.1472 153.516 79.7707 150.287 79.7707H51.9629C48.7343 79.7707 46.1108 77.1472 46.1108 73.9185V6.53981C46.1108 3.31117 48.7343 0.687678 51.9629 0.687678H150.287C153.516 0.687678 156.139 3.31117 156.139 6.53981V73.9185Z" fill="#3F3D56"/>
<path d="M89.7887 6.65328H80.1405C79.6557 6.65328 79.2603 7.0487 79.2603 7.53351C79.2603 8.02175 79.6557 8.41718 80.1405 8.41718H89.7887C90.2735 8.41718 90.6689 8.02176 90.6689 7.53351C90.6689 7.04871 90.2735 6.65328 89.7887 6.65328Z" fill="#E6E6E6"/>
<path d="M105.949 6.65328H96.301C95.8162 6.65328 95.4207 7.0487 95.4207 7.53351C95.4207 8.02175 95.8162 8.41718 96.301 8.41718H105.949C106.434 8.41718 106.829 8.02176 106.829 7.53351C106.829 7.04871 106.434 6.65328 105.949 6.65328Z" fill="#E6E6E6"/>
<path d="M122.11 6.65328H112.461C111.977 6.65328 111.581 7.0487 111.581 7.53351C111.581 8.02175 111.977 8.41718 112.461 8.41718H122.11C122.594 8.41718 122.99 8.02176 122.99 7.53351C122.99 7.04871 122.594 6.65328 122.11 6.65328Z" fill="#E6E6E6"/>
<path d="M138.022 46.2518H64.2277C61.1572 46.2518 58.6609 48.7481 58.6609 51.8185V56.8455C58.6609 59.916 61.1572 62.4122 64.2277 62.4122H138.022C141.093 62.4122 143.589 59.916 143.589 56.8455V51.8185C143.589 48.7481 141.093 46.2518 138.022 46.2518Z" fill="#00BFA6"/>
<path d="M25.1619 72.7192L22.3321 71.3787C23.4928 72.9985 24.4929 75.5282 25.0283 77.5411C25.9348 75.666 27.3962 73.3717 28.8428 72.0012L25.852 72.7706C27.6949 63.7387 34.6265 57.2546 42.5641 57.2546V56.567C34.273 56.567 27.0435 63.3226 25.1619 72.7192Z" fill="#3F3D56"/>
<path d="M38.1862 86.481H20.3066C19.5482 86.481 18.9312 85.864 18.9312 85.1056C18.9312 84.3473 19.5482 83.7303 20.3066 83.7303H38.1862C38.9446 83.7303 39.5616 84.3473 39.5616 85.1056C39.5616 85.864 38.9446 86.481 38.1862 86.481Z" fill="#E6E6E6"/>
<path d="M157.127 82.0015L156.947 96.0435L153.453 108.561L150.66 107.519L151.9 96.0456L151.737 80.5188L157.127 82.0015Z" fill="#FFB6B6"/>
<path d="M153.441 110.58C153.769 108.78 153.168 107.163 152.099 106.968C151.031 106.774 149.899 108.075 149.571 109.875C149.243 111.675 149.844 113.292 150.912 113.486C151.981 113.681 153.113 112.38 153.441 110.58Z" fill="#FFB6B6"/>
<path d="M152.887 65.2818C152.887 65.2818 158.873 65.3642 158.868 68.5436C158.865 70.3387 158.479 86.6375 157.406 96.5389C156.579 104.174 155 106.166 155 106.166L151.217 97.5704L152.887 65.2818Z" fill="#E6E6E6"/>
<path d="M152.734 93.9708H132.52C134.214 90.1901 135.256 86.5896 133.628 83.7256L152.734 82.618C151.779 86.4843 151.662 90.2786 152.734 93.9708Z" fill="#FFB6B6"/>
<path d="M150.241 60.4662L142.211 59.9124L138.889 64.0659L137.204 64.3721C134.679 64.8313 132.881 67.0846 132.994 69.6486L133.649 84.5412L152.842 85.9407L157.441 66.5475L151.903 64.3428L150.241 60.4662Z" fill="#E6E6E6"/>
<path d="M101.271 64.9587C101.841 65.4712 102.248 66.0699 102.462 66.6506L108.198 71.1902L105.958 73.8563L100.381 68.9643C99.7809 68.8119 99.1427 68.4705 98.573 67.958C97.2715 66.7871 96.8204 65.1666 97.5655 64.3383C98.3106 63.5101 99.9697 63.7879 101.271 64.9587Z" fill="#FFB6B6"/>
<path d="M141.822 68.7804L119.845 83.6203L104.092 72.6574L106.457 68.3731L118.856 75.5788L130.29 66.7991C134.362 62.9745 139.465 63.7159 141.822 68.7804Z" fill="#E6E6E6"/>
<path d="M145.75 58.6687C149.04 58.6687 151.708 56.0015 151.708 52.7114C151.708 49.4212 149.04 46.754 145.75 46.754C142.46 46.754 139.793 49.4212 139.793 52.7114C139.793 56.0015 142.46 58.6687 145.75 58.6687Z" fill="#FFB6B6"/>
<path d="M153.848 51.2478V52.4031L147.129 50.512L142.092 51.5675C142.033 50.8008 141.806 50.0478 141.428 49.3807C141.691 50.4506 141.721 51.2783 141.442 51.7051L140.765 51.846C140.655 51.5469 140.441 51.2856 140.163 51.1274C140.135 51.1102 140.101 51.0965 140.07 51.1068C140.022 51.124 140.018 51.1859 140.018 51.234C140.025 51.4884 140.032 51.7429 140.043 51.9973L138.096 52.4031V51.2478C136.229 47.0468 141.15 43.4116 145.974 43.3738C148.15 43.3568 150.117 44.2541 151.544 45.6776C152.967 47.1045 153.848 49.0713 153.848 51.2478Z" fill="#2F2E41"/>
<path d="M157.627 64.7944L157.12 64.7524C157.156 64.5865 157.192 64.4227 157.225 64.2568C157.506 62.8644 156.887 61.0919 156.842 59.7541C156.603 61.1675 157.012 62.9064 156.589 64.2484C156.542 64.3975 154.706 65.3598 154.656 65.5068C152.624 64.7637 150.508 62.3895 148.112 63.7762C146.695 64.5964 145.078 64.2369 143.469 63.8614C143.071 63.7684 143.015 61.8018 142.621 61.7245C141.915 61.5862 140.879 63.3739 140.214 63.4437L142.965 52.7847C142.965 46.9862 142.428 40.9025 149.773 42.9529C151.621 43.4686 153.449 43.8728 154.812 45.3975C156.176 46.9243 157.147 49.058 157.491 51.4879C157.698 52.9538 158.992 57.9312 157.627 64.7944Z" fill="#2F2E41"/>
<path d="M152.884 171.982L149.605 172.059L147.777 157.327L152.616 157.213L152.884 171.982Z" fill="#FFB7B7"/>
<path d="M141.634 178.823C141.634 179.377 142.027 179.826 142.512 179.826H149.021C149.021 179.826 149.661 177.251 152.273 176.143L152.453 179.826H155.81L155.404 173.904C155.404 173.904 156.302 170.736 154.436 169.117C152.571 167.497 154.082 167.723 154.082 167.723L153.348 164.058L148.275 164.654L148.237 170.408L145.775 176.118L142.164 177.902C141.842 178.061 141.634 178.423 141.634 178.823Z" fill="#2F2E41"/>
<path d="M142.908 169.581L139.756 170.488L134.25 156.702L138.901 155.364L142.908 169.581Z" fill="#FFB7B7"/>
<path d="M133.762 179.053C133.903 179.589 134.397 179.923 134.866 179.8L141.162 178.149C141.162 178.149 141.128 175.496 143.373 173.761L144.481 177.278L147.729 176.426L145.833 170.801C145.833 170.801 145.898 167.509 143.683 166.416C141.467 165.323 142.986 165.157 142.986 165.157L141.346 161.799L136.59 163.663L138.014 169.237L137.081 175.386L134.041 178.028C133.77 178.263 133.661 178.666 133.762 179.053Z" fill="#2F2E41"/>
<path d="M150.873 93.1005L152.936 93.7882C156.162 99.7455 157.53 107.657 157.348 117.196L153.684 160.042H147.688L143.301 112.31L135.565 130.226L141.225 160.042L135.565 160.62L124.164 129.615L132.104 93.58L150.873 93.1005Z" fill="#2F2E41"/>
</g>
<defs>
<clipPath id="clip0_12_1779">
<rect width="187.586" height="180" fill="white"/>
</clipPath>
</defs>
</svg>
