<svg width="205" height="179" viewBox="0 0 205 179" fill="none" xmlns="http://www.w3.org/2000/svg">
<g clip-path="url(#clip0_11_777)">
<path d="M11.2155 63.5887C14.5635 69.4767 21.6691 72.0043 21.6691 72.0043C21.6691 72.0043 23.3466 64.9856 19.9986 59.0976C16.6506 53.2096 9.54493 50.682 9.54493 50.682C9.54493 50.682 7.86746 57.7007 11.2155 63.5887Z" fill="#2F2E41"/>
<path d="M13.5167 61.6516C19.5612 65.1002 21.8891 71.95 21.8891 71.95C21.8891 71.95 14.417 73.2085 8.37245 69.76C2.32793 66.3114 0 59.4616 0 59.4616C0 59.4616 7.47216 58.203 13.5167 61.6516Z" fill="#6C63FF"/>
<path d="M205 159.33C205 165.538 189.442 179 170.25 179C151.058 179 135.499 165.538 135.499 159.33C135.499 153.122 151.058 156.52 170.25 156.52C189.442 156.52 205 153.122 205 159.33Z" fill="#3F3D56"/>
<path opacity="0.1" d="M205 159.33C205 165.538 189.442 179 170.25 179C151.058 179 135.499 165.538 135.499 159.33C135.499 153.122 151.058 156.52 170.25 156.52C189.442 156.52 205 153.122 205 159.33Z" fill="black"/>
<path d="M170.25 170.57C189.442 170.57 205 165.538 205 159.33C205 153.122 189.442 148.09 170.25 148.09C151.058 148.09 135.499 153.122 135.499 159.33C135.499 165.538 151.058 170.57 170.25 170.57Z" fill="#3F3D56"/>
<path d="M130.92 77.0734H20.4731V136.85H130.92V77.0734Z" fill="#F1F1F1"/>
<path d="M182.507 19.8515C188.383 19.8515 193.147 15.6197 193.147 10.3996C193.147 5.17952 188.383 0.947784 182.507 0.947784C176.63 0.947784 171.866 5.17952 171.866 10.3996C171.866 15.6197 176.63 19.8515 182.507 19.8515Z" fill="#2F2E41"/>
<path d="M151.528 69.282L148.834 72.8584C148.834 72.8584 135.903 75.413 140.752 79.2448C145.601 83.0766 152.605 75.6684 152.605 75.6684L156.376 71.0702L151.528 69.282Z" fill="#FFB8B8"/>
<path d="M165.535 28.6647C165.535 28.6647 162.034 28.6647 161.225 33.2629C160.417 37.8611 159.609 53.1884 159.609 53.1884C159.609 53.1884 148.295 67.2384 150.181 69.0266C152.066 70.8148 154.221 74.1357 155.568 73.6248C156.915 73.1139 168.499 58.042 168.499 58.042L165.535 28.6647Z" fill="#6C63FF"/>
<path opacity="0.1" d="M165.535 28.6647C165.535 28.6647 162.034 28.6647 161.225 33.2629C160.417 37.8611 159.609 53.1884 159.609 53.1884C159.609 53.1884 148.295 67.2384 150.181 69.0266C152.066 70.8148 154.221 74.1357 155.568 73.6248C156.915 73.1139 168.499 58.042 168.499 58.042L165.535 28.6647Z" fill="black"/>
<path d="M176.311 15.6365C176.311 15.6365 176.041 25.5992 172.809 26.1101C169.576 26.621 170.654 29.942 170.654 29.942C170.654 29.942 181.16 35.8174 188.164 29.942L189.51 26.8765C189.51 26.8765 184.662 23.5556 186.817 18.9574L176.311 15.6365Z" fill="#FFB8B8"/>
<path d="M158.262 76.9457C158.262 76.9457 142.369 105.046 148.295 113.731C154.221 122.417 163.111 140.299 164.458 140.299C165.805 140.299 173.348 136.722 172.809 134.423C172.27 132.124 164.189 115.008 162.034 113.476C159.878 111.943 160.956 107.856 161.225 107.6C161.495 107.345 170.384 93.8057 170.384 93.8057C170.384 93.8057 170.115 115.264 171.193 118.585C172.27 121.906 170.923 145.663 172.27 146.685C173.617 147.707 179.813 149.495 180.89 147.962C181.968 146.429 185.2 123.183 183.045 117.818L187.086 81.033L158.262 76.9457Z" fill="#2F2E41"/>
<path d="M172.809 145.152L166.074 156.903C166.074 156.903 156.376 163.545 163.111 164.567C169.846 165.589 173.886 163.034 173.886 163.034L179.813 158.947V147.196L172.809 145.152Z" fill="#2F2E41"/>
<path d="M163.65 138.51L167.152 146.429C167.152 146.429 168.499 149.75 167.152 150.517C165.805 151.283 162.033 155.881 164.458 156.392C164.946 156.483 165.441 156.53 165.938 156.532C167.957 156.564 169.962 156.209 171.832 155.487C173.702 154.765 175.399 153.692 176.821 152.332L179.005 150.261C179.005 150.261 171.524 133.925 171.628 134.047C171.731 134.168 163.65 138.51 163.65 138.51Z" fill="#2F2E41"/>
<path d="M183.045 21.7674C188.104 21.7674 192.204 17.8788 192.204 13.0819C192.204 8.28507 188.104 4.39645 183.045 4.39645C177.987 4.39645 173.886 8.28507 173.886 13.0819C173.886 17.8788 177.987 21.7674 183.045 21.7674Z" fill="#FFB8B8"/>
<path d="M188.298 25.216L185.47 27.8983C185.47 27.8983 176.85 30.9638 172.809 27.8983C172.809 27.8983 174.29 24.9606 174.29 25.216C174.29 25.4715 162.572 27.1319 161.495 31.7301C160.417 36.3283 162.303 44.2474 162.303 44.2474C162.303 44.2474 154.76 77.9675 157.723 78.7339C160.687 79.5002 188.433 85.8866 188.164 81.033C187.894 76.1793 190.319 56.2538 190.319 56.2538L199.747 39.1383C199.747 39.1383 198.4 33.5183 195.168 31.7301C191.935 29.942 188.298 25.216 188.298 25.216Z" fill="#6C63FF"/>
<path d="M176.311 75.1575L172.809 77.2011C172.809 77.2011 159.34 85.8866 166.344 87.4193C173.348 88.9521 177.388 81.2884 177.388 81.2884L180.082 78.223L176.311 75.1575Z" fill="#FFB8B8"/>
<path opacity="0.1" d="M196.245 37.6056L198.67 39.9047C198.67 39.9047 200.286 61.3629 197.053 65.7057C193.821 70.0484 179.005 81.7993 178.196 81.033C177.388 80.2666 172.27 76.4348 173.348 75.9239C174.425 75.4129 188.752 61.2175 188.752 61.2175L187.625 41.4374L196.245 37.6056Z" fill="black"/>
<path d="M197.323 36.8392L199.747 39.1383C199.747 39.1383 201.363 60.5966 198.131 64.9393C194.898 69.282 180.082 81.033 179.274 80.2666C178.466 79.5002 173.348 75.6684 174.425 75.1575C175.503 74.6466 189.829 60.4511 189.829 60.4511L188.702 40.6711L197.323 36.8392Z" fill="#6C63FF"/>
<path d="M179.257 0.744743C179.257 0.744743 176.144 -0.328867 171.898 1.95255L174.163 2.48936C174.163 2.48936 170.766 2.75776 170.342 7.05219H171.898C171.898 7.05219 170.908 10.8098 171.898 11.8834L172.535 10.7427L174.375 14.232L174.8 12.4873L175.649 12.7557L176.215 9.93752C176.215 9.93752 177.63 11.9505 178.762 12.0847V10.3401C178.762 10.3401 181.875 13.6951 182.866 13.5609L181.451 11.6821L183.432 12.0847L182.583 10.7427L187.678 12.0847L186.546 10.7427L190.083 11.8163L191.782 12.4873C191.782 12.4873 194.187 7.25349 190.791 3.63006C187.395 0.00663063 182.442 -0.798568 179.257 0.744743Z" fill="#2F2E41"/>
<path d="M90.2695 109.537C90.0433 109.672 89.8091 109.798 89.5671 109.914C87.5992 110.852 85.3191 111.012 83.227 110.359C81.135 109.705 79.4017 108.291 78.4076 106.427L76.6156 103.057L77.8184 102.482L79.6104 105.852C80.0218 106.626 80.59 107.317 81.2827 107.883C81.9754 108.449 82.7789 108.88 83.6474 109.152C84.5159 109.423 85.4323 109.53 86.3442 109.466C87.2562 109.401 88.1459 109.167 88.9624 108.777C89.7789 108.386 90.5063 107.847 91.103 107.19C91.6997 106.533 92.1539 105.77 92.4399 104.947C92.7258 104.123 92.8378 103.254 92.7694 102.389C92.7011 101.524 92.4537 100.681 92.0414 99.9066L84.5159 85.756C84.1042 84.982 83.5358 84.2924 82.8431 83.7267C82.1504 83.161 81.347 82.7302 80.4788 82.4589C79.6105 82.1876 78.6944 82.0811 77.7828 82.1456C76.8711 82.21 75.9818 82.4441 75.1656 82.8345C74.3494 83.2249 73.6222 83.7639 73.0256 84.4208C72.4291 85.0777 71.9748 85.8395 71.6887 86.6629C71.4026 87.4862 71.2904 88.355 71.3583 89.2195C71.4263 90.084 71.6732 90.9273 72.0848 91.7014L74.7492 96.7114L73.5465 97.2864L70.882 92.2764C69.8906 90.4108 69.7211 88.2481 70.4109 86.264C71.1007 84.2798 72.5932 82.6367 74.5603 81.696C76.5274 80.7553 78.8079 80.5939 80.9004 81.2475C82.9929 81.901 84.726 83.3159 85.7186 85.181L93.2442 99.3315C94.1735 101.079 94.3837 103.092 93.8338 104.979C93.2839 106.865 92.0134 108.49 90.2695 109.537Z" fill="#3F3D56"/>
<path d="M90.9974 127.003C90.7743 127.137 90.5429 127.261 90.3031 127.375C88.3352 128.314 86.0551 128.474 83.963 127.82C81.8709 127.167 80.1377 125.753 79.1436 123.889L71.618 109.738C70.6258 107.872 70.4558 105.709 71.1454 103.725C71.835 101.74 73.3277 100.097 75.2952 99.1556C77.2626 98.2147 79.5436 98.0535 81.6364 98.7075C83.7293 99.3614 85.4624 100.777 86.4546 102.643L88.4315 106.36L87.2287 106.935L85.2518 103.218C84.8402 102.444 84.2717 101.754 83.5791 101.188C82.8864 100.623 82.083 100.192 81.2147 99.9206C80.3465 99.6493 79.4304 99.5428 78.5187 99.6073C77.6071 99.6718 76.7178 99.9058 75.9015 100.296C75.0853 100.687 74.3581 101.226 73.7616 101.882C73.165 102.539 72.7107 103.301 72.4247 104.125C72.1386 104.948 72.0263 105.817 72.0943 106.681C72.1623 107.546 72.4091 108.389 72.8208 109.163L80.3463 123.314C80.7577 124.088 81.326 124.778 82.0186 125.344C82.7113 125.911 83.5149 126.342 84.3833 126.613C85.2518 126.885 86.1682 126.992 87.0802 126.927C87.9922 126.863 88.8818 126.629 89.6984 126.238C90.5149 125.848 91.2422 125.309 91.8389 124.651C92.4356 123.994 92.8899 123.232 93.1758 122.408C93.4618 121.585 93.5738 120.715 93.5054 119.851C93.437 118.986 93.1897 118.142 92.7774 117.368L90.187 112.497L91.3898 111.922L93.9802 116.793C94.9076 118.543 95.116 120.557 94.5647 122.444C94.0134 124.331 92.7419 125.956 90.9974 127.003Z" fill="#3F3D56"/>
<path d="M144.658 137.361H20.2037V71.7089H144.658V137.361ZM20.7424 136.85H144.12V72.2198H20.7424V136.85Z" fill="#2F2E41"/>
</g>
<defs>
<clipPath id="clip0_11_777">
<rect width="205" height="179" fill="white"/>
</clipPath>
</defs>
</svg>
