<svg width="285" height="180" viewBox="0 0 285 180" fill="none" xmlns="http://www.w3.org/2000/svg">
<g clip-path="url(#clip0_12_1783)">
<path d="M181.255 56.3144C181.792 50.5249 183.277 44.863 185.65 39.5548C186.311 38.0775 187.039 36.6328 187.833 35.2207C187.873 35.1468 187.883 35.0604 187.86 34.9796C187.837 34.8988 187.784 34.8299 187.712 34.7876C187.639 34.7452 187.553 34.7327 187.472 34.7526C187.39 34.7725 187.319 34.8232 187.275 34.8942C184.386 40.0377 182.362 45.6211 181.284 51.421C180.984 53.0407 180.759 54.6718 180.608 56.3144C180.57 56.7287 181.217 56.7261 181.255 56.3144Z" fill="#E6E6E6"/>
<path d="M189.4 36.258C191.662 36.258 193.496 34.4239 193.496 32.1616C193.496 29.8992 191.662 28.0652 189.4 28.0652C187.137 28.0652 185.303 29.8992 185.303 32.1616C185.303 34.4239 187.137 36.258 189.4 36.258Z" fill="#E6E6E6"/>
<path d="M181.674 56.4232C182.022 52.6673 182.986 48.9941 184.525 45.5504C184.954 44.5921 185.426 43.6548 185.941 42.7387C185.967 42.6908 185.973 42.6347 185.959 42.5823C185.944 42.5299 185.91 42.4852 185.863 42.4578C185.816 42.4303 185.76 42.4222 185.707 42.4351C185.654 42.448 185.608 42.4809 185.579 42.5269C183.705 45.8638 182.392 49.4859 181.693 53.2486C181.498 54.2994 181.352 55.3576 181.254 56.4232C181.229 56.6919 181.649 56.6902 181.674 56.4232Z" fill="#E6E6E6"/>
<path d="M186.958 43.4117C188.425 43.4117 189.615 42.2218 189.615 40.7541C189.615 39.2864 188.425 38.0966 186.958 38.0966C185.49 38.0966 184.3 39.2864 184.3 40.7541C184.3 42.2218 185.49 43.4117 186.958 43.4117Z" fill="#E6E6E6"/>
<path d="M181.144 56.1723C179.109 52.9964 177.609 49.5078 176.705 45.8457C176.454 44.8262 176.249 43.7968 176.092 42.7575C176.083 42.7038 176.054 42.6557 176.01 42.6234C175.966 42.5911 175.911 42.5771 175.857 42.5844C175.803 42.5916 175.754 42.6196 175.721 42.6623C175.687 42.705 175.671 42.7592 175.676 42.8133C176.251 46.5971 177.444 50.2607 179.207 53.6576C179.699 54.6057 180.235 55.53 180.813 56.4304C180.959 56.6576 181.289 56.3981 181.144 56.1723Z" fill="#E6E6E6"/>
<path d="M175.673 43.2251C177.141 43.2251 178.331 42.0353 178.331 40.5676C178.331 39.0999 177.141 37.9101 175.673 37.9101C174.205 37.9101 173.016 39.0999 173.016 40.5676C173.016 42.0353 174.205 43.2251 175.673 43.2251Z" fill="#E6E6E6"/>
<path d="M172.986 58.5236V53.3022C172.986 52.783 173.193 52.2853 173.56 51.9183C173.927 51.5512 174.425 51.3447 174.944 51.3441H187.127C187.646 51.3447 188.144 51.5512 188.511 51.9183C188.878 52.2853 189.085 52.783 189.085 53.3022V58.5236C189.085 59.0427 188.878 59.5404 188.511 59.9075C188.144 60.2746 187.646 60.481 187.127 60.4816H174.944C174.425 60.481 173.927 60.2746 173.56 59.9075C173.193 59.5404 172.986 59.0427 172.986 58.5236Z" fill="#F2F2F2"/>
<path d="M186.692 25.2369H181.471C180.951 25.2364 180.454 25.0299 180.087 24.6628C179.72 24.2957 179.513 23.798 179.512 23.2789V1.95804C179.513 1.43891 179.72 0.941225 180.087 0.574148C180.454 0.207072 180.951 0.000585043 181.471 0H186.692C187.211 0.000585043 187.709 0.207072 188.076 0.574148C188.443 0.941225 188.649 1.43891 188.65 1.95804V23.2789C188.649 23.798 188.443 24.2957 188.076 24.6628C187.709 25.0299 187.211 25.2363 186.692 25.2369Z" fill="#F2F2F2"/>
<path d="M188.432 4.13361H179.73V5.87408H188.432V4.13361Z" fill="#CCCCCC"/>
<path d="M188.432 17.6223H179.73V19.3628H188.432V17.6223Z" fill="#CCCCCC"/>
<path d="M199.746 25.2369H194.524C194.005 25.2364 193.507 25.0299 193.14 24.6628C192.773 24.2957 192.567 23.798 192.566 23.2789V1.95804C192.567 1.43891 192.773 0.941225 193.14 0.574148C193.507 0.207072 194.005 0.000585043 194.524 0H199.746C200.265 0.000585043 200.762 0.207072 201.129 0.574148C201.496 0.941225 201.703 1.43891 201.704 1.95804V23.2789C201.703 23.798 201.496 24.2957 201.129 24.6628C200.762 25.0299 200.265 25.2363 199.746 25.2369Z" fill="#F2F2F2"/>
<path d="M201.486 4.13361H192.784V5.87408H201.486V4.13361Z" fill="#CCCCCC"/>
<path d="M201.486 17.6223H192.784V19.3628H201.486V17.6223Z" fill="#CCCCCC"/>
<path d="M212.799 25.2369H207.578C207.059 25.2364 206.561 25.0299 206.194 24.6628C205.827 24.2957 205.62 23.798 205.62 23.2789V1.95804C205.62 1.43891 205.827 0.941225 206.194 0.574148C206.561 0.207072 207.059 0.000585043 207.578 0H212.799C213.318 0.000585043 213.816 0.207072 214.183 0.574148C214.55 0.941225 214.757 1.43891 214.757 1.95804V23.2789C214.757 23.798 214.55 24.2957 214.183 24.6628C213.816 25.0299 213.318 25.2363 212.799 25.2369Z" fill="#F2F2F2"/>
<path d="M214.54 4.13361H205.837V5.87408H214.54V4.13361Z" fill="#CCCCCC"/>
<path d="M214.54 17.6223H205.837V19.3628H214.54V17.6223Z" fill="#CCCCCC"/>
<path d="M219.761 60.4816H214.54C214.02 60.481 213.523 60.2745 213.156 59.9075C212.789 59.5404 212.582 59.0427 212.582 58.5236V37.2027C212.582 36.6836 212.789 36.1859 213.156 35.8188C213.523 35.4517 214.02 35.2453 214.54 35.2447H219.761C220.28 35.2453 220.778 35.4517 221.145 35.8188C221.512 36.1859 221.718 36.6836 221.719 37.2027V58.5236C221.718 59.0427 221.512 59.5404 221.145 59.9075C220.778 60.2745 220.28 60.481 219.761 60.4816Z" fill="#F2F2F2"/>
<path d="M221.501 39.3783H212.799V41.1188H221.501V39.3783Z" fill="#CCCCCC"/>
<path d="M221.501 52.867H212.799V54.6075H221.501V52.867Z" fill="#CCCCCC"/>
<path d="M232.815 60.4816H227.593C227.074 60.481 226.576 60.2745 226.209 59.9075C225.842 59.5404 225.636 59.0427 225.635 58.5236V37.2027C225.636 36.6836 225.842 36.1859 226.209 35.8188C226.576 35.4517 227.074 35.2453 227.593 35.2447H232.815C233.334 35.2453 233.831 35.4517 234.198 35.8188C234.566 36.1859 234.772 36.6836 234.773 37.2027V58.5236C234.772 59.0427 234.566 59.5404 234.198 59.9075C233.831 60.2745 233.334 60.481 232.815 60.4816Z" fill="#F2F2F2"/>
<path d="M234.555 39.3783H225.853V41.1188H234.555V39.3783Z" fill="#CCCCCC"/>
<path d="M234.555 52.867H225.853V54.6075H234.555V52.867Z" fill="#CCCCCC"/>
<path d="M245.868 60.4816H240.647C240.128 60.481 239.63 60.2745 239.263 59.9075C238.896 59.5404 238.689 59.0427 238.689 58.5236V37.2027C238.689 36.6836 238.896 36.1859 239.263 35.8188C239.63 35.4517 240.128 35.2453 240.647 35.2447H245.868C246.387 35.2453 246.885 35.4517 247.252 35.8188C247.619 36.1859 247.826 36.6836 247.826 37.2027V58.5236C247.826 59.0427 247.619 59.5404 247.252 59.9075C246.885 60.2745 246.387 60.481 245.868 60.4816Z" fill="#F2F2F2"/>
<path d="M247.609 39.3783H238.906V41.1188H247.609V39.3783Z" fill="#CCCCCC"/>
<path d="M247.609 52.867H238.906V54.6075H247.609V52.867Z" fill="#CCCCCC"/>
<path d="M185.387 95.7263H180.165C179.646 95.7257 179.148 95.5192 178.781 95.1522C178.414 94.7851 178.208 94.2874 178.207 93.7683V72.4474C178.208 71.9283 178.414 71.4306 178.781 71.0635C179.148 70.6964 179.646 70.49 180.165 70.4894H185.387C185.906 70.49 186.403 70.6964 186.77 71.0635C187.138 71.4306 187.344 71.9283 187.345 72.4474V93.7683C187.344 94.2874 187.138 94.7851 186.77 95.1522C186.403 95.5192 185.906 95.7257 185.387 95.7263Z" fill="#F2F2F2"/>
<path d="M187.127 74.623H178.425V76.3635H187.127V74.623Z" fill="#CCCCCC"/>
<path d="M187.127 88.1117H178.425V89.8522H187.127V88.1117Z" fill="#CCCCCC"/>
<path d="M198.44 95.7263H193.219C192.7 95.7257 192.202 95.5192 191.835 95.1522C191.468 94.7851 191.261 94.2874 191.261 93.7683V72.4474C191.261 71.9283 191.468 71.4306 191.835 71.0635C192.202 70.6964 192.7 70.49 193.219 70.4894H198.44C198.959 70.49 199.457 70.6964 199.824 71.0635C200.191 71.4306 200.398 71.9283 200.398 72.4474V93.7683C200.398 94.2874 200.191 94.7851 199.824 95.1522C199.457 95.5192 198.959 95.7257 198.44 95.7263Z" fill="#F2F2F2"/>
<path d="M200.181 74.623H191.478V76.3635H200.181V74.623Z" fill="#CCCCCC"/>
<path d="M200.181 88.1117H191.478V89.8522H200.181V88.1117Z" fill="#CCCCCC"/>
<path d="M211.494 95.7263H206.272C205.753 95.7257 205.255 95.5192 204.888 95.1522C204.521 94.7851 204.315 94.2874 204.314 93.7683V72.4474C204.315 71.9283 204.521 71.4306 204.888 71.0635C205.255 70.6964 205.753 70.49 206.272 70.4894H211.494C212.013 70.49 212.511 70.6964 212.878 71.0635C213.245 71.4306 213.451 71.9283 213.452 72.4474V93.7683C213.451 94.2874 213.245 94.7851 212.878 95.1522C212.511 95.5192 212.013 95.7257 211.494 95.7263Z" fill="#F2F2F2"/>
<path d="M213.234 74.623H204.532V76.3635H213.234V74.623Z" fill="#CCCCCC"/>
<path d="M213.234 88.1117H204.532V89.8522H213.234V88.1117Z" fill="#CCCCCC"/>
<path d="M225.853 25.2369H220.631C220.112 25.2364 219.614 25.0299 219.247 24.6628C218.88 24.2957 218.674 23.798 218.673 23.2789V1.95804C218.674 1.43891 218.88 0.941225 219.247 0.574148C219.614 0.207072 220.112 0.000585043 220.631 0H225.853C226.372 0.000585043 226.87 0.207072 227.237 0.574148C227.604 0.941225 227.81 1.43891 227.811 1.95804V23.2789C227.81 23.798 227.604 24.2957 227.237 24.6628C226.87 25.0299 226.372 25.2363 225.853 25.2369Z" fill="#F2F2F2"/>
<path d="M227.593 4.13361H218.891V5.87408H227.593V4.13361Z" fill="#CCCCCC"/>
<path d="M227.593 17.6223H218.891V19.3628H227.593V17.6223Z" fill="#CCCCCC"/>
<path d="M238.906 25.2369H233.685C233.166 25.2364 232.668 25.0299 232.301 24.6628C231.934 24.2957 231.727 23.798 231.727 23.2789V1.95804C231.727 1.43891 231.934 0.941225 232.301 0.574148C232.668 0.207072 233.166 0.000585043 233.685 0H238.906C239.425 0.000585043 239.923 0.207072 240.29 0.574148C240.657 0.941225 240.864 1.43891 240.864 1.95804V23.2789C240.864 23.798 240.657 24.2957 240.29 24.6628C239.923 25.0299 239.425 25.2363 238.906 25.2369Z" fill="#F2F2F2"/>
<path d="M240.647 4.13361H231.944V5.87408H240.647V4.13361Z" fill="#CCCCCC"/>
<path d="M240.647 17.6223H231.944V19.3628H240.647V17.6223Z" fill="#CCCCCC"/>
<path d="M251.96 25.2369H246.738C246.219 25.2364 245.722 25.0299 245.355 24.6628C244.987 24.2957 244.781 23.798 244.78 23.2789V1.95804C244.781 1.43891 244.987 0.941225 245.355 0.574148C245.722 0.207072 246.219 0.000585043 246.738 0H251.96C252.479 0.000585043 252.977 0.207072 253.344 0.574148C253.711 0.941225 253.917 1.43891 253.918 1.95804V23.2789C253.917 23.798 253.711 24.2957 253.344 24.6628C252.977 25.0299 252.479 25.2363 251.96 25.2369Z" fill="#F2F2F2"/>
<path d="M253.7 4.13361H244.998V5.87408H253.7V4.13361Z" fill="#CCCCCC"/>
<path d="M253.7 17.6223H244.998V19.3628H253.7V17.6223Z" fill="#CCCCCC"/>
<path d="M265.013 25.2369H259.792C259.273 25.2364 258.775 25.0299 258.408 24.6628C258.041 24.2957 257.835 23.798 257.834 23.2789V1.95804C257.835 1.43891 258.041 0.941225 258.408 0.574148C258.775 0.207072 259.273 0.000585043 259.792 0H265.013C265.533 0.000585043 266.03 0.207072 266.397 0.574148C266.764 0.941225 266.971 1.43891 266.971 1.95804V23.2789C266.971 23.798 266.764 24.2957 266.397 24.6628C266.03 25.0299 265.533 25.2363 265.013 25.2369Z" fill="#F2F2F2"/>
<path d="M266.754 4.13361H258.052V5.87408H266.754V4.13361Z" fill="#CCCCCC"/>
<path d="M266.754 17.6223H258.052V19.3628H266.754V17.6223Z" fill="#CCCCCC"/>
<path d="M284.568 25.8896H160.559C160.444 25.8896 160.333 25.8437 160.251 25.7621C160.17 25.6805 160.124 25.5699 160.124 25.4545C160.124 25.3391 160.17 25.2284 160.251 25.1468C160.333 25.0652 160.444 25.0193 160.559 25.0193H284.568C284.684 25.0193 284.794 25.0652 284.876 25.1468C284.957 25.2284 285.003 25.3391 285.003 25.4545C285.003 25.5699 284.957 25.6805 284.876 25.7621C284.794 25.8437 284.684 25.8896 284.568 25.8896Z" fill="#CCCCCC"/>
<path d="M284.568 61.1343H160.559C160.444 61.1343 160.333 61.0884 160.251 61.0068C160.17 60.9252 160.124 60.8146 160.124 60.6992C160.124 60.5838 160.17 60.4731 160.251 60.3915C160.333 60.3099 160.444 60.264 160.559 60.264H284.568C284.684 60.264 284.794 60.3099 284.876 60.3915C284.957 60.4731 285.003 60.5838 285.003 60.6992C285.003 60.8146 284.957 60.9252 284.876 61.0068C284.794 61.0884 284.684 61.1343 284.568 61.1343Z" fill="#CCCCCC"/>
<path d="M284.568 96.379H160.559C160.444 96.379 160.333 96.3331 160.251 96.2515C160.17 96.1699 160.124 96.0592 160.124 95.9438C160.124 95.8284 160.17 95.7178 160.251 95.6362C160.333 95.5546 160.444 95.5087 160.559 95.5087H284.568C284.684 95.5087 284.794 95.5546 284.876 95.6362C284.957 95.7178 285.003 95.8284 285.003 95.9438C285.003 96.0592 284.957 96.1699 284.876 96.2515C284.794 96.3331 284.684 96.379 284.568 96.379Z" fill="#CCCCCC"/>
<path d="M253.049 91.5591C253.587 85.7696 255.072 80.1077 257.444 74.7995C258.106 73.3222 258.833 71.8775 259.628 70.4653C259.668 70.3915 259.677 70.305 259.655 70.2243C259.632 70.1435 259.579 70.0746 259.506 70.0323C259.434 69.9899 259.348 69.9774 259.266 69.9973C259.185 70.0172 259.114 70.0679 259.069 70.1389C256.18 75.2824 254.157 80.8658 253.079 86.6657C252.779 88.2854 252.553 89.9165 252.403 91.5591C252.364 91.9734 253.011 91.9707 253.049 91.5591Z" fill="#E6E6E6"/>
<path d="M261.194 71.5027C263.457 71.5027 265.291 69.6686 265.291 67.4063C265.291 65.1439 263.457 63.3099 261.194 63.3099C258.932 63.3099 257.098 65.1439 257.098 67.4063C257.098 69.6686 258.932 71.5027 261.194 71.5027Z" fill="#E6E6E6"/>
<path d="M253.468 91.6679C253.817 87.912 254.78 84.2388 256.32 80.7951C256.749 79.8368 257.221 78.8995 257.736 77.9834C257.762 77.9355 257.768 77.8794 257.753 77.827C257.739 77.7746 257.704 77.7299 257.657 77.7025C257.61 77.675 257.554 77.6669 257.502 77.6797C257.449 77.6926 257.403 77.7256 257.374 77.7716C255.5 81.1084 254.187 84.7306 253.487 88.4933C253.293 89.5441 253.147 90.6023 253.049 91.6679C253.024 91.9366 253.444 91.9349 253.468 91.6679Z" fill="#E6E6E6"/>
<path d="M258.752 78.6563C260.22 78.6563 261.41 77.4665 261.41 75.9988C261.41 74.5311 260.22 73.3413 258.752 73.3413C257.285 73.3413 256.095 74.5311 256.095 75.9988C256.095 77.4665 257.285 78.6563 258.752 78.6563Z" fill="#E6E6E6"/>
<path d="M252.939 91.417C250.904 88.241 249.404 84.7524 248.5 81.0904C248.248 80.0709 248.044 79.0414 247.887 78.0021C247.878 77.9484 247.848 77.9004 247.805 77.8681C247.761 77.8358 247.706 77.8218 247.652 77.829C247.598 77.8363 247.549 77.8642 247.515 77.9069C247.482 77.9496 247.466 78.0038 247.471 78.058C248.046 81.8417 249.238 85.5053 251.001 88.9022C251.494 89.8504 252.03 90.7746 252.608 91.675C252.754 91.9023 253.084 91.6427 252.939 91.417Z" fill="#E6E6E6"/>
<path d="M247.468 78.4698C248.935 78.4698 250.125 77.2799 250.125 75.8122C250.125 74.3445 248.935 73.1547 247.468 73.1547C246 73.1547 244.81 74.3445 244.81 75.8122C244.81 77.2799 246 78.4698 247.468 78.4698Z" fill="#E6E6E6"/>
<path d="M244.78 93.7682V88.5468C244.781 88.0277 244.987 87.53 245.355 87.1629C245.722 86.7958 246.219 86.5893 246.738 86.5887H258.922C259.441 86.5893 259.939 86.7958 260.306 87.1629C260.673 87.53 260.879 88.0277 260.88 88.5468V93.7682C260.879 94.2873 260.673 94.785 260.306 95.1521C259.939 95.5192 259.441 95.7257 258.922 95.7263H246.738C246.219 95.7257 245.722 95.5192 245.355 95.1521C244.987 94.785 244.781 94.2873 244.78 93.7682Z" fill="#F2F2F2"/>
<path d="M166.216 158.166H0.435119C0.319719 158.166 0.209051 158.12 0.12745 158.038C0.0458491 157.957 0 157.846 0 157.731C0 157.615 0.0458491 157.505 0.12745 157.423C0.209051 157.342 0.319719 157.296 0.435119 157.296H166.216C166.331 157.296 166.442 157.342 166.523 157.423C166.605 157.505 166.651 157.615 166.651 157.731C166.651 157.846 166.605 157.957 166.523 158.038C166.442 158.12 166.331 158.166 166.216 158.166Z" fill="#3F3D56"/>
<path d="M86.6145 101.165C93.1028 101.165 98.3627 95.9054 98.3627 89.417C98.3627 82.9287 93.1028 77.6688 86.6145 77.6688C80.1261 77.6688 74.8662 82.9287 74.8662 89.417C74.8662 95.9054 80.1261 101.165 86.6145 101.165Z" fill="#2F2E41"/>
<path d="M75.4519 164.835L75.1408 159.51L95.5331 155.774L95.9926 163.634L75.4519 164.835Z" fill="#FFB8B8"/>
<path d="M76.4398 155.617L77.0401 165.887L70.5736 166.265L69.5953 149.528C70.4445 149.478 71.2951 149.597 72.0987 149.876C72.9022 150.155 73.6429 150.589 74.2785 151.155C74.9141 151.72 75.4321 152.405 75.8029 153.171C76.1737 153.936 76.3901 154.767 76.4398 155.617Z" fill="#2F2E41"/>
<path d="M84.3214 164.786L80.934 168.907L63.4265 157.803L68.4256 151.721L84.3214 164.786Z" fill="#FFB8B8"/>
<path d="M77.337 170.883L83.8696 162.935L88.8737 167.048L78.2281 180C77.571 179.46 77.0266 178.796 76.6262 178.045C76.2258 177.295 75.9771 176.473 75.8943 175.626C75.8116 174.779 75.8964 173.925 76.144 173.111C76.3915 172.297 76.7969 171.54 77.337 170.883Z" fill="#2F2E41"/>
<path d="M74.5737 145.621L72.2589 156.534C72.2056 156.785 72.2086 157.045 72.2676 157.295C72.3267 157.545 72.4403 157.779 72.6004 157.98C72.7604 158.18 72.963 158.343 73.1934 158.457C73.4239 158.57 73.6766 158.631 73.9335 158.635L96.6893 159.002C96.9458 159.006 97.2 158.954 97.4338 158.848C97.6676 158.742 97.8752 158.586 98.0416 158.391C98.2081 158.196 98.3294 157.966 98.3967 157.719C98.4641 157.471 98.4759 157.212 98.4313 156.959L96.4409 145.68C96.3698 145.277 96.159 144.912 95.8455 144.649C95.5321 144.386 95.136 144.242 94.7269 144.242H76.2762C75.8774 144.242 75.4906 144.379 75.1807 144.63C74.8707 144.881 74.6564 145.231 74.5737 145.621Z" fill="#2F2E41"/>
<path d="M78.3472 149.464C78.3472 149.464 56.1561 135.54 51.8049 142.937C49.6293 146.635 50.7171 150.225 52.3488 152.89C53.863 155.317 56.0367 157.262 58.6156 158.499L76.6067 167.303L83.1335 160.341L78.7823 156.425L78.3472 149.464Z" fill="#2F2E41"/>
<path d="M89.6603 147.288C89.6603 147.288 118.378 139.021 112.722 154.685C107.065 170.349 85.7442 164.258 85.7442 164.258L83.5686 157.731L90.9657 152.509L89.6603 147.288Z" fill="#2F2E41"/>
<path d="M86.7618 102.787C92.664 102.787 97.4488 98.002 97.4488 92.0997C97.4488 86.1974 92.664 81.4127 86.7618 81.4127C80.8595 81.4127 76.0748 86.1974 76.0748 92.0997C76.0748 98.002 80.8595 102.787 86.7618 102.787Z" fill="#FFB8B8"/>
<path d="M87.3218 149.015C82.881 148.948 78.463 148.366 74.1563 147.28L74.029 147.245L68.0655 119.813C67.529 117.403 67.8938 114.879 69.0909 112.719C70.288 110.559 72.2346 108.912 74.5631 108.09C81.7555 105.509 89.5948 105.353 96.8845 107.644C99.3305 108.432 101.39 110.114 102.651 112.353C103.912 114.592 104.282 117.225 103.688 119.725L97.0267 147.222L96.9329 147.267C94.1648 148.578 90.7033 149.015 87.3218 149.015Z" fill="#CCCCCC"/>
<path d="M79.3111 151.146C79.5277 150.544 79.8736 149.997 80.3245 149.543C80.7754 149.089 81.3202 148.74 81.9207 148.52C82.5213 148.299 83.1628 148.213 83.8001 148.268C84.4375 148.322 85.0551 148.515 85.6096 148.834L97.352 138.642L98.4144 146.652L87.1008 155.103C86.5033 155.999 85.5979 156.644 84.5561 156.917C83.5143 157.191 82.4086 157.072 81.4484 156.584C80.4882 156.096 79.7403 155.273 79.3464 154.271C78.9525 153.269 78.9399 152.157 79.3111 151.146Z" fill="#FFB8B8"/>
<path d="M90.5101 153.369C90.3191 153.369 90.1291 153.341 89.9461 153.286C89.649 153.2 89.3769 153.043 89.1526 152.83C88.9284 152.617 88.7584 152.353 88.6571 152.061L87.2397 148.045C87.1071 147.674 87.0902 147.271 87.1914 146.891C87.2926 146.51 87.507 146.168 87.8064 145.912L103.805 136.307L97.4985 108.172L97.6589 108.133C97.7242 108.117 104.186 106.646 106.834 113.707C108.688 118.653 115.55 129.405 115.066 136.671C114.974 138.125 114.395 139.505 113.422 140.589C112.449 141.672 111.139 142.397 109.704 142.644L91.6954 152.962C91.3562 153.225 90.9393 153.368 90.5101 153.369Z" fill="#CCCCCC"/>
<path d="M92.3045 150.191C92.088 149.589 91.7421 149.042 91.2912 148.589C90.8403 148.135 90.2954 147.786 89.6949 147.565C89.0944 147.345 88.4529 147.259 87.8155 147.313C87.1782 147.368 86.5605 147.561 86.006 147.88L74.2637 137.687L73.2013 145.697L84.5149 154.148C85.1124 155.044 86.0178 155.69 87.0596 155.963C88.1013 156.236 89.2071 156.117 90.1672 155.63C91.1274 155.142 91.8753 154.319 92.2693 153.317C92.6632 152.314 92.6757 151.202 92.3045 150.191Z" fill="#FFB8B8"/>
<path d="M82.2837 153.369C81.8545 153.368 81.4376 153.225 81.0984 152.962L61.7843 143.515C60.3492 143.267 59.0395 142.543 58.0667 141.459C57.0939 140.375 56.5147 138.995 56.4227 137.541C55.9387 130.275 64.1059 118.652 65.9601 113.707C68.6078 106.646 75.0696 108.117 75.1349 108.133L75.2953 108.172L67.6833 137.177L84.9874 145.912C85.2868 146.168 85.5013 146.51 85.6024 146.89C85.7036 147.271 85.6868 147.674 85.5541 148.045L84.1367 152.061C84.0354 152.353 83.8654 152.617 83.6412 152.83C83.4169 153.043 83.1448 153.2 82.8477 153.286C82.6647 153.341 82.4747 153.369 82.2837 153.369Z" fill="#CCCCCC"/>
<path d="M105.325 157.731H66.599C65.7915 157.73 65.0173 157.409 64.4463 156.838C63.8753 156.267 63.5541 155.492 63.5531 154.685V133.364C63.5541 132.557 63.8753 131.782 64.4463 131.211C65.0173 130.64 65.7915 130.319 66.599 130.318H105.325C106.132 130.319 106.906 130.64 107.477 131.211C108.048 131.782 108.37 132.557 108.37 133.364V154.685C108.37 155.492 108.048 156.267 107.477 156.838C106.906 157.409 106.132 157.73 105.325 157.731Z" fill="#F50057"/>
<path d="M85.9618 146.635C87.4036 146.635 88.5725 145.466 88.5725 144.025C88.5725 142.583 87.4036 141.414 85.9618 141.414C84.5199 141.414 83.3511 142.583 83.3511 144.025C83.3511 145.466 84.5199 146.635 85.9618 146.635Z" fill="white"/>
<path d="M75.9678 91.6648C75.3344 90.0582 76.3736 88.1436 77.9152 87.3653C79.4569 86.5871 81.3172 86.7351 82.9662 87.248C84.352 87.6791 85.6508 88.3471 87.0028 88.8747C88.3356 89.4653 89.7916 89.7246 91.2464 89.6304C92.6885 89.4676 94.1238 88.6589 94.7139 87.333C95.3256 85.9587 94.9095 84.2815 93.9676 83.1085C92.9654 81.9746 91.6683 81.1409 90.2205 80.7002C87.0408 79.58 83.3681 79.5473 80.4162 81.1756C77.4644 82.8039 75.4583 86.2709 76.0684 89.5865" fill="#2F2E41"/>
<path d="M14.2121 153.083C14.7497 147.294 16.2344 141.632 18.607 136.323C19.2683 134.846 19.9961 133.402 20.7905 131.989C20.8303 131.915 20.84 131.829 20.8173 131.748C20.7946 131.667 20.7414 131.599 20.669 131.556C20.5965 131.514 20.5105 131.501 20.4289 131.521C20.3474 131.541 20.2768 131.592 20.232 131.663C17.3431 136.806 15.3193 142.39 14.2414 148.19C13.9415 149.809 13.7162 151.441 13.5653 153.083C13.5269 153.497 14.174 153.495 14.2121 153.083Z" fill="#E6E6E6"/>
<path d="M22.3571 133.027C24.6194 133.027 26.4534 131.193 26.4534 128.93C26.4534 126.668 24.6194 124.834 22.3571 124.834C20.0947 124.834 18.2607 126.668 18.2607 128.93C18.2607 131.193 20.0947 133.027 22.3571 133.027Z" fill="#F50057"/>
<path d="M14.6311 153.192C14.9799 149.436 15.9431 145.763 17.4823 142.319C17.9113 141.361 18.3835 140.424 18.8988 139.507C18.9247 139.459 18.9309 139.403 18.9162 139.351C18.9015 139.299 18.867 139.254 18.82 139.226C18.773 139.199 18.7172 139.191 18.6643 139.204C18.6114 139.217 18.5656 139.25 18.5365 139.296C16.6624 142.632 15.3494 146.255 14.6501 150.017C14.4556 151.068 14.3094 152.126 14.2115 153.192C14.1866 153.461 14.6064 153.459 14.6311 153.192Z" fill="#E6E6E6"/>
<path d="M19.9151 140.18C21.3828 140.18 22.5727 138.991 22.5727 137.523C22.5727 136.055 21.3828 134.865 19.9151 134.865C18.4474 134.865 17.2576 136.055 17.2576 137.523C17.2576 138.991 18.4474 140.18 19.9151 140.18Z" fill="#F50057"/>
<path d="M14.1015 152.941C12.0664 149.765 10.5667 146.276 9.66223 142.614C9.41105 141.595 9.20689 140.566 9.04975 139.526C9.04067 139.472 9.0111 139.424 8.96726 139.392C8.92342 139.36 8.86875 139.346 8.81478 139.353C8.76082 139.36 8.71179 139.388 8.67802 139.431C8.64426 139.474 8.6284 139.528 8.63381 139.582C9.20843 143.366 10.401 147.029 12.164 150.426C12.6569 151.374 13.1924 152.299 13.7707 153.199C13.9164 153.426 14.2463 153.167 14.1015 152.941Z" fill="#E6E6E6"/>
<path d="M8.63046 139.994C10.0982 139.994 11.288 138.804 11.288 137.336C11.288 135.869 10.0982 134.679 8.63046 134.679C7.16276 134.679 5.97295 135.869 5.97295 137.336C5.97295 138.804 7.16276 139.994 8.63046 139.994Z" fill="#F50057"/>
<path d="M5.94311 155.292V150.071C5.94369 149.552 6.15018 149.054 6.51726 148.687C6.88433 148.32 7.38202 148.113 7.90114 148.113H20.0845C20.6036 148.113 21.1013 148.32 21.4684 148.687C21.8355 149.054 22.0419 149.552 22.0425 150.071V155.292C22.0419 155.811 21.8355 156.309 21.4684 156.676C21.1013 157.043 20.6036 157.25 20.0845 157.25H7.90114C7.38202 157.25 6.88433 157.043 6.51726 156.676C6.15018 156.309 5.94369 155.811 5.94311 155.292Z" fill="#F2F2F2"/>
<path d="M136.805 161.386C136.805 164.248 134.485 165.549 131.624 165.549C128.762 165.549 126.442 164.248 126.442 161.386C126.442 158.524 127.593 155.185 131.624 156.337C135.654 154.609 136.805 158.524 136.805 161.386Z" fill="#FF6584"/>
<path d="M131.371 157.677C131.17 157.678 130.975 157.604 130.824 157.472C130.672 157.339 130.574 157.155 130.548 156.955C130.377 155.528 129.431 152.731 129.033 151.595L129.032 151.595C128.992 151.482 128.98 151.361 128.996 151.242C129.013 151.124 129.058 151.011 129.128 150.913C129.195 150.826 129.28 150.754 129.376 150.702C129.473 150.65 129.579 150.619 129.689 150.611C129.798 150.603 129.908 150.619 130.011 150.656C130.115 150.694 130.208 150.753 130.287 150.83C130.357 150.903 130.412 150.991 130.447 151.086C130.482 151.182 130.497 151.283 130.491 151.385C130.413 152.843 131.476 155.199 132.116 156.473C132.176 156.594 132.207 156.727 132.205 156.861C132.202 156.996 132.167 157.128 132.103 157.246C132.038 157.364 131.946 157.464 131.833 157.538C131.721 157.613 131.593 157.659 131.459 157.673C131.43 157.676 131.401 157.677 131.371 157.677Z" fill="#3F3D56"/>
<path d="M135.206 154.461C137.004 152.989 135.593 149.976 133.342 150.554C133.039 150.627 132.76 150.776 132.531 150.987C131.15 152.292 130.936 155.629 130.936 155.629C130.936 155.629 133.374 155.96 135.206 154.461Z" fill="#3F3D56"/>
</g>
<defs>
<clipPath id="clip0_12_1783">
<rect width="285.003" height="180" fill="white"/>
</clipPath>
</defs>
</svg>
