<svg width="569" height="382" viewBox="0 0 569 382" fill="none" xmlns="http://www.w3.org/2000/svg">
<g clip-path="url(#clip0_361_1855)">
<path d="M184.571 265.8H100.571C96.4599 265.8 92.5175 267.433 89.6107 270.34C86.7038 273.247 85.0708 277.189 85.0708 281.3C85.0708 285.411 86.7038 289.354 89.6107 292.26C92.5175 295.167 96.4599 296.8 100.571 296.8H184.571C188.682 296.8 192.624 295.167 195.531 292.26C198.438 289.354 200.071 285.411 200.071 281.3C200.071 277.189 198.438 273.247 195.531 270.34C192.624 267.433 188.682 265.8 184.571 265.8Z" fill="white"/>
<path d="M184.571 297.8H100.571C96.1947 297.8 91.9979 296.062 88.9035 292.968C85.8092 289.873 84.0708 285.676 84.0708 281.3C84.0708 276.924 85.8092 272.727 88.9035 269.633C91.9979 266.539 96.1947 264.8 100.571 264.8H184.571C188.947 264.8 193.144 266.539 196.238 269.633C199.332 272.727 201.071 276.924 201.071 281.3C201.071 285.676 199.332 289.873 196.238 292.968C193.144 296.062 188.947 297.8 184.571 297.8ZM100.571 266.8C96.7252 266.8 93.037 268.328 90.3177 271.047C87.5985 273.767 86.0708 277.455 86.0708 281.3C86.0708 285.146 87.5985 288.834 90.3177 291.553C93.037 294.273 96.7252 295.8 100.571 295.8H184.571C188.416 295.8 192.105 294.273 194.824 291.553C197.543 288.834 199.071 285.146 199.071 281.3C199.071 277.455 197.543 273.767 194.824 271.047C192.105 268.328 188.416 266.8 184.571 266.8H100.571Z" fill="#7215FC"/>
<path d="M518.666 103.589H291.673C276.902 103.589 264.928 115.563 264.928 130.333V354.436C264.928 369.206 276.902 381.18 291.673 381.18H518.666C533.436 381.18 545.41 369.206 545.41 354.436V130.333C545.41 115.563 533.436 103.589 518.666 103.589Z" fill="#F2F2F2"/>
<path d="M416.108 218.083C415.41 217.32 415.038 216.314 415.07 215.28C415.102 214.246 415.536 213.266 416.28 212.547C416.433 212.404 416.598 212.273 416.773 212.156L413.427 198.714L419.65 194.616L422.244 213.526C422.67 214.289 422.832 215.173 422.704 216.038C422.576 216.903 422.165 217.701 421.536 218.308C421.174 218.65 420.749 218.918 420.284 219.095C419.819 219.273 419.324 219.357 418.827 219.343C418.329 219.33 417.839 219.218 417.385 219.015C416.931 218.812 416.521 218.521 416.179 218.16C416.155 218.134 416.132 218.109 416.108 218.083Z" fill="#FFB6B6"/>
<path d="M422.56 204.83L414.397 205.588L402.276 162.955C402.24 162.837 398.651 150.864 395.025 148.991C393.675 148.294 393.18 147.877 393.2 147.454C393.22 147.016 393.768 146.795 394.527 146.488C395.29 146.215 396.011 145.836 396.667 145.36C398.32 144.053 397.593 142.793 396.587 141.051C396.392 140.712 396.188 140.36 395.994 139.992C395.421 138.906 396.062 134.29 397.901 126.274C398.447 123.875 399.741 121.711 401.595 120.093C403.45 118.476 405.769 117.488 408.22 117.273C409.769 117.134 411.33 117.306 412.812 117.78C414.293 118.253 415.665 119.019 416.846 120.031C418.027 121.043 418.993 122.281 419.688 123.672C420.384 125.063 420.793 126.579 420.893 128.131L422.488 152.82L422.56 204.83Z" fill="#7215FC"/>
<path d="M390.503 356.676L384.825 356.629L382.311 334.216L390.692 334.287L390.503 356.676Z" fill="#FFB6B6"/>
<path d="M372.315 365.706C372.31 366.379 372.572 367.026 373.044 367.506C373.516 367.986 374.159 368.26 374.832 368.266L386.122 368.361L388.098 364.355L388.824 368.381L393.084 368.42L392.008 354.058L390.526 353.96L384.481 353.543L382.531 353.413L382.497 357.476L373.428 363.627C373.088 363.858 372.809 364.167 372.615 364.529C372.422 364.891 372.319 365.295 372.315 365.706Z" fill="#2F2E41"/>
<path d="M450.286 352.528L444.859 354.196L435.697 333.588L443.708 331.126L450.286 352.528Z" fill="#FFB6B6"/>
<path d="M435.672 366.626C435.871 367.269 436.316 367.808 436.911 368.123C437.506 368.438 438.201 368.505 438.845 368.308L449.636 364.99L450.311 360.574L452.219 364.193L456.291 362.945L450.931 349.578L449.488 349.931L443.599 351.359L441.701 351.823L442.895 355.707L436.105 364.309C435.851 364.631 435.679 365.01 435.604 365.414C435.528 365.818 435.552 366.234 435.672 366.626Z" fill="#2F2E41"/>
<path d="M379.082 168.221L368.246 199.712L367.888 202.232C365.158 204.824 368.588 205.678 367.301 206.362C366.015 207.045 365.15 208.962 366.884 209.304C368.617 209.647 367.938 334.291 375.308 339.06C382.679 343.829 399.693 349.124 398.339 342.141C396.986 335.158 397.482 248.918 397.482 248.918C397.482 248.918 433.661 340.736 436.134 340.765C438.607 340.794 456.284 334.155 455.466 330.971C454.648 327.788 422.543 248.076 424.722 245.01C426.901 241.944 427.731 240.611 425.582 240.411C423.433 240.21 422.798 241.389 422.681 238.415C422.565 235.441 422.194 228.107 422.194 228.107C422.194 228.107 420.638 199.103 409.736 183.079L408.807 173.558L379.082 168.221Z" fill="#2F2E41"/>
<path d="M406.153 108.098L391.783 110.144L390.916 120.549L383.825 131.642C383.825 131.642 368.063 142.734 379.056 160.256L378.343 169.974L413.894 184.282L417.315 121.949L406.153 108.098Z" fill="#7215FC"/>
<path d="M382.061 221.676C381.609 220.746 381.538 219.676 381.862 218.694C382.187 217.712 382.882 216.895 383.8 216.418C383.988 216.324 384.184 216.246 384.385 216.184L385.001 202.345L392.133 200.187L389.239 219.053C389.431 219.906 389.335 220.799 388.966 221.592C388.597 222.385 387.976 223.033 387.2 223.436C386.756 223.661 386.272 223.797 385.776 223.835C385.28 223.873 384.781 223.813 384.308 223.658C383.835 223.503 383.397 223.257 383.02 222.933C382.642 222.609 382.332 222.213 382.107 221.77C382.091 221.739 382.076 221.708 382.061 221.676Z" fill="#FFB6B6"/>
<path d="M392.016 210.807L383.975 209.211L384.485 164.891C384.485 164.768 384.45 152.269 381.507 149.442C380.411 148.389 380.056 147.849 380.195 147.448C380.339 147.035 380.927 146.978 381.742 146.9C382.551 146.856 383.35 146.697 384.114 146.428C386.071 145.645 385.733 144.231 385.264 142.273C385.173 141.893 385.078 141.498 384.997 141.09C384.756 139.886 386.684 135.643 390.727 128.481C391.934 126.337 393.79 124.63 396.028 123.607C398.266 122.584 400.77 122.297 403.182 122.788C404.706 123.096 406.154 123.705 407.439 124.581C408.724 125.456 409.821 126.58 410.666 127.886C411.51 129.192 412.084 130.654 412.355 132.186C412.626 133.717 412.587 135.287 412.242 136.804L406.745 160.926L392.016 210.807Z" fill="#7215FC"/>
<path d="M397.526 107.719C406.394 107.719 413.583 100.53 413.583 91.6619C413.583 82.7938 406.394 75.6047 397.526 75.6047C388.658 75.6047 381.469 82.7938 381.469 91.6619C381.469 100.53 388.658 107.719 397.526 107.719Z" fill="#FFB6B6"/>
<path d="M418.805 113.928C420.96 117.012 422.402 120.537 423.025 124.248C421.289 125.359 419.267 125.942 417.205 125.928C417.135 125.658 417.065 125.388 416.985 125.118C416.388 123.027 415.499 121.031 414.345 119.188C414.504 121.175 414.234 123.173 413.555 125.048C412.466 124.552 411.298 124.251 410.105 124.158C409.134 124.158 408.175 124.383 407.305 124.818C406.295 121.468 405.365 118.388 404.705 116.178C404.685 121.718 396.565 126.548 387.705 125.848C387.385 125.648 390.595 116.538 390.285 116.328C389.575 115.858 388.885 115.348 388.195 114.848C391.095 110.368 394.245 105.568 393.705 104.848C393.745 105.738 390.565 110.018 387.105 114.058C385.185 112.648 396.095 89.7076 390.705 87.8476C390.615 88.6576 389.425 88.6576 387.975 88.4876C387.593 87.1511 387.024 85.8753 386.285 84.6976C386.381 85.8839 386.239 87.0774 385.865 88.2076C384.434 88.208 383.006 88.3588 381.605 88.6576C381.281 88.1478 380.924 87.66 380.535 87.1976C380.574 87.7612 380.557 88.3272 380.485 88.8876C379.499 88.9994 378.55 89.3272 377.705 89.8476C376.585 89.4376 378.495 87.5876 377.795 86.6276C376.015 84.2276 378.655 80.7276 380.325 78.2476C382.126 75.7559 384.767 73.9997 387.761 73.3031C390.755 72.6065 393.9 73.0166 396.615 74.4576C396.855 73.6276 398.085 73.0776 399.665 72.7076C400.335 72.56 401.02 72.4962 401.705 72.5176C408.505 72.6376 417.945 78.2476 418.315 85.0376C418.345 85.7176 418.395 86.4576 418.445 87.2476C418.925 94.8476 418.335 101.858 423.525 107.418C425.405 109.428 425.425 118.948 424.705 123.848C422.835 121.878 421.505 114.218 418.805 113.928Z" fill="#2F2E41"/>
<path d="M326.787 367.576C326.787 367.732 326.817 367.887 326.877 368.032C326.936 368.177 327.024 368.308 327.135 368.419C327.245 368.529 327.377 368.617 327.521 368.676C327.666 368.736 327.821 368.766 327.977 368.766H493.267C493.583 368.766 493.885 368.641 494.109 368.417C494.332 368.194 494.457 367.892 494.457 367.576C494.457 367.26 494.332 366.958 494.109 366.735C493.885 366.511 493.583 366.386 493.267 366.386H327.977C327.821 366.386 327.666 366.416 327.521 366.476C327.377 366.535 327.245 366.623 327.135 366.733C327.024 366.844 326.936 366.975 326.877 367.12C326.817 367.265 326.787 367.42 326.787 367.576Z" fill="#CCCCCC"/>
<path d="M247.229 122.492H42.8222C41.6531 122.492 40.5319 122.028 39.7053 121.201C38.8786 120.374 38.4142 119.253 38.4142 118.084C38.4142 116.915 38.8786 115.794 39.7053 114.967C40.5319 114.14 41.6531 113.676 42.8222 113.676H247.229C248.398 113.676 249.519 114.14 250.346 114.967C251.172 115.794 251.637 116.915 251.637 118.084C251.637 119.253 251.172 120.374 250.346 121.201C249.519 122.028 248.398 122.492 247.229 122.492Z" fill="#3F3D56"/>
<path d="M247.229 216.492H42.8222C41.6531 216.492 40.5319 216.028 39.7053 215.201C38.8786 214.374 38.4142 213.253 38.4142 212.084C38.4142 210.915 38.8786 209.794 39.7053 208.967C40.5319 208.14 41.6531 207.676 42.8222 207.676H247.229C248.398 207.676 249.519 208.14 250.346 208.967C251.172 209.794 251.637 210.915 251.637 212.084C251.637 213.253 251.172 214.374 250.346 215.201C249.519 216.028 248.398 216.492 247.229 216.492Z" fill="#7215FC"/>
<path d="M350.703 169.523H42.8222C41.6531 169.523 40.5319 169.058 39.7053 168.232C38.8786 167.405 38.4142 166.284 38.4142 165.115C38.4142 163.946 38.8786 162.825 39.7053 161.998C40.5319 161.171 41.6531 160.707 42.8222 160.707H350.703C351.872 160.707 352.993 161.171 353.82 161.998C354.646 162.825 355.111 163.946 355.111 165.115C355.111 166.284 354.646 167.405 353.82 168.232C352.993 169.058 351.872 169.523 350.703 169.523Z" fill="#7215FC"/>
<path d="M251.636 229.737C251.371 229.737 251.117 229.632 250.929 229.444C250.742 229.257 250.636 229.003 250.636 228.737V195.431C250.636 195.165 250.742 194.911 250.929 194.724C251.117 194.536 251.371 194.431 251.636 194.431C251.901 194.431 252.156 194.536 252.343 194.724C252.531 194.911 252.636 195.165 252.636 195.431V228.737C252.636 229.003 252.531 229.257 252.343 229.444C252.156 229.632 251.901 229.737 251.636 229.737Z" fill="#3F3D56"/>
<path d="M20.9531 101.1C20.9531 100.834 21.0585 100.58 21.246 100.393C21.4336 100.205 21.6879 100.1 21.9531 100.1H55.2598C55.525 100.1 55.7794 100.205 55.9669 100.392C56.1544 100.58 56.2598 100.834 56.2598 101.1C56.2598 101.365 56.1544 101.619 55.9669 101.807C55.7794 101.994 55.525 102.1 55.2598 102.1H21.9531C21.6879 102.1 21.4336 101.994 21.246 101.807C21.0585 101.619 20.9531 101.365 20.9531 101.1Z" fill="#3F3D56"/>
<path d="M38.6064 135.737C38.3412 135.737 38.0869 135.632 37.8994 135.444C37.7118 135.257 37.6065 135.003 37.6064 134.737V101.431C37.6064 101.165 37.7118 100.911 37.8993 100.724C38.0869 100.536 38.3412 100.431 38.6064 100.431C38.8717 100.431 39.126 100.536 39.3135 100.724C39.5011 100.911 39.6064 101.165 39.6064 101.431V134.737C39.6064 135.003 39.5011 135.257 39.3135 135.444C39.126 135.632 38.8717 135.737 38.6064 135.737Z" fill="#3F3D56"/>
</g>
<defs>
<clipPath id="clip0_361_1855">
<rect width="568.73" height="381.18" fill="white"/>
</clipPath>
</defs>
</svg>
