<svg width="246" height="180" viewBox="0 0 246 180" fill="none" xmlns="http://www.w3.org/2000/svg">
<g clip-path="url(#clip0_12_1782)">
<path d="M231.771 180L232.05 179.484C228.306 177.459 223.646 174.939 221.212 170.803C218.812 166.726 218.758 161.19 221.071 156.355C223.039 152.24 226.655 148.554 231.526 145.694C232.487 145.13 233.496 144.595 234.471 144.078C236.829 142.829 239.268 141.536 241.278 139.703C244.047 137.178 246.142 132.94 244.581 129.165C244.067 127.961 243.226 126.924 242.153 126.173C241.08 125.423 239.818 124.988 238.51 124.918L238.477 125.504C239.675 125.568 240.831 125.966 241.815 126.654C242.798 127.341 243.569 128.29 244.04 129.394C245.491 132.901 243.5 136.882 240.882 139.269C238.927 141.052 236.522 142.327 234.196 143.559C233.215 144.079 232.201 144.617 231.229 145.188C226.256 148.107 222.56 151.881 220.541 156.102C218.146 161.11 218.208 166.858 220.706 171.101C223.222 175.377 227.962 177.941 231.771 180Z" fill="#F1F1F1"/>
<path d="M234.788 128.013C237.626 128.013 239.926 126.896 239.926 125.517C239.926 124.139 237.626 123.022 234.788 123.022C231.951 123.022 229.651 124.139 229.651 125.517C229.651 126.896 231.951 128.013 234.788 128.013Z" fill="#F1F1F1"/>
<path d="M230.678 144.454C233.516 144.454 235.816 143.337 235.816 141.958C235.816 140.58 233.516 139.463 230.678 139.463C227.841 139.463 225.54 140.58 225.54 141.958C225.54 143.337 227.841 144.454 230.678 144.454Z" fill="#F1F1F1"/>
<path d="M240.073 147.096C242.911 147.096 245.211 145.979 245.211 144.601C245.211 143.222 242.911 142.105 240.073 142.105C237.236 142.105 234.935 143.222 234.935 144.601C234.935 145.979 237.236 147.096 240.073 147.096Z" fill="#F1F1F1"/>
<path d="M225.394 160.895C228.231 160.895 230.531 159.778 230.531 158.399C230.531 157.021 228.231 155.904 225.394 155.904C222.556 155.904 220.256 157.021 220.256 158.399C220.256 159.778 222.556 160.895 225.394 160.895Z" fill="#F1F1F1"/>
<path d="M215.118 160.895C217.955 160.895 220.256 159.778 220.256 158.399C220.256 157.021 217.955 155.904 215.118 155.904C212.28 155.904 209.98 157.021 209.98 158.399C209.98 159.778 212.28 160.895 215.118 160.895Z" fill="#F1F1F1"/>
<path d="M40.306 129.028H22.0755C21.5818 129.028 21.1086 128.831 20.7595 128.482C20.4104 128.133 20.214 127.66 20.2134 127.166V67.0984C20.214 66.6047 20.4104 66.1315 20.7595 65.7824C21.1086 65.4334 21.5818 65.237 22.0755 65.2365H40.306C40.7996 65.237 41.2729 65.4334 41.622 65.7824C41.9711 66.1315 42.1674 66.6047 42.168 67.0984V127.166C42.1674 127.66 41.9711 128.133 41.622 128.482C41.2729 128.831 40.7996 129.028 40.306 129.028Z" fill="#7215FC"/>
<path d="M73.5515 129.028H55.321C54.8274 129.028 54.3541 128.831 54.005 128.482C53.6559 128.133 53.4595 127.66 53.459 127.166V43.262C53.4595 42.7683 53.6559 42.295 54.005 41.946C54.3541 41.5969 54.8274 41.4006 55.321 41.4001H73.5515C74.0451 41.4006 74.5184 41.5969 74.8675 41.946C75.2166 42.295 75.4129 42.7683 75.4135 43.262V127.166C75.4129 127.66 75.2166 128.133 74.8675 128.482C74.5184 128.831 74.0451 129.028 73.5515 129.028Z" fill="#7215FC"/>
<path d="M106.797 129.028H88.5665C88.0729 129.028 87.5996 128.831 87.2505 128.482C86.9014 128.133 86.7051 127.66 86.7045 127.166V67.0984C86.7051 66.6047 86.9014 66.1315 87.2505 65.7824C87.5996 65.4334 88.0729 65.237 88.5665 65.2365H106.797C107.291 65.237 107.764 65.4334 108.113 65.7824C108.462 66.1315 108.658 66.6047 108.659 67.0984V127.166C108.658 127.66 108.462 128.133 108.113 128.482C107.764 128.831 107.291 129.028 106.797 129.028Z" fill="#7215FC"/>
<path d="M140.042 129.028H121.812C121.33 129.039 120.863 128.857 120.514 128.524C120.165 128.191 119.962 127.733 119.95 127.251V33.7685C119.962 33.2861 120.165 32.8282 120.514 32.495C120.863 32.1618 121.33 31.9806 121.812 31.991H140.042C140.525 31.9806 140.992 32.1618 141.341 32.495C141.69 32.8282 141.893 33.2861 141.905 33.7685V127.251C141.893 127.733 141.69 128.191 141.341 128.524C140.992 128.857 140.525 129.039 140.042 129.028Z" fill="#7215FC"/>
<path d="M173.288 129.028H155.058C154.564 129.028 154.091 128.831 153.742 128.482C153.392 128.133 153.196 127.66 153.195 127.166V16.9165C153.196 16.4228 153.392 15.9496 153.742 15.6005C154.091 15.2515 154.564 15.0551 155.058 15.0546H173.288C173.782 15.0551 174.255 15.2515 174.604 15.6005C174.953 15.9496 175.149 16.4228 175.15 16.9165V127.166C175.149 127.66 174.953 128.133 174.604 128.482C174.255 128.831 173.782 129.028 173.288 129.028Z" fill="#7215FC"/>
<path d="M31.1907 57.7092C33.2693 57.7092 34.9544 56.0241 34.9544 53.9455C34.9544 51.8669 33.2693 50.1819 31.1907 50.1819C29.1121 50.1819 27.4271 51.8669 27.4271 53.9455C27.4271 56.0241 29.1121 57.7092 31.1907 57.7092Z" fill="#3F3D56"/>
<path d="M64.4362 33.2455C66.5148 33.2455 68.1999 31.5605 68.1999 29.4819C68.1999 27.4033 66.5148 25.7182 64.4362 25.7182C62.3576 25.7182 60.6726 27.4033 60.6726 29.4819C60.6726 31.5605 62.3576 33.2455 64.4362 33.2455Z" fill="#3F3D56"/>
<path d="M97.6817 57.7092C99.7603 57.7092 101.445 56.0241 101.445 53.9455C101.445 51.8669 99.7603 50.1819 97.6817 50.1819C95.6031 50.1819 93.9181 51.8669 93.9181 53.9455C93.9181 56.0241 95.6031 57.7092 97.6817 57.7092Z" fill="#3F3D56"/>
<path d="M130.927 21.3273C133.006 21.3273 134.691 19.6423 134.691 17.5637C134.691 15.4851 133.006 13.8 130.927 13.8C128.849 13.8 127.164 15.4851 127.164 17.5637C127.164 19.6423 128.849 21.3273 130.927 21.3273Z" fill="#3F3D56"/>
<path d="M164.173 7.52729C166.251 7.52729 167.936 5.84225 167.936 3.76364C167.936 1.68504 166.251 0 164.173 0C162.094 0 160.409 1.68504 160.409 3.76364C160.409 5.84225 162.094 7.52729 164.173 7.52729Z" fill="#3F3D56"/>
<path d="M194.651 129.727H0.293591C0.215726 129.727 0.14105 129.696 0.0859905 129.641C0.0309316 129.586 0 129.512 0 129.434C0 129.356 0.0309316 129.281 0.0859905 129.226C0.14105 129.171 0.215726 129.14 0.293591 129.14H194.651C194.729 129.14 194.803 129.171 194.858 129.226C194.913 129.281 194.944 129.356 194.944 129.434C194.944 129.512 194.913 129.586 194.858 129.641C194.803 129.696 194.729 129.727 194.651 129.727Z" fill="#CBCBCB"/>
<path d="M243.093 179.931H147.97C147.892 179.931 147.817 179.9 147.762 179.845C147.707 179.79 147.676 179.716 147.676 179.638C147.676 179.56 147.707 179.485 147.762 179.43C147.817 179.375 147.892 179.344 147.97 179.344H243.093C243.171 179.344 243.246 179.375 243.301 179.43C243.356 179.485 243.387 179.56 243.387 179.638C243.387 179.716 243.356 179.79 243.301 179.845C243.246 179.9 243.171 179.931 243.093 179.931Z" fill="#CBCBCB"/>
<path d="M182.007 124.955C182.249 124.715 182.435 124.426 182.552 124.106C182.669 123.786 182.715 123.445 182.686 123.106C182.657 122.767 182.554 122.438 182.384 122.143C182.215 121.848 181.982 121.594 181.704 121.398L182.858 116.205L179.873 114.734L178.346 122.091C178.048 122.581 177.941 123.162 178.044 123.726C178.147 124.29 178.453 124.796 178.904 125.149C179.356 125.502 179.921 125.678 180.493 125.642C181.065 125.606 181.603 125.362 182.007 124.955Z" fill="#FFB7B7"/>
<path d="M214.65 125.069C214.872 124.811 215.035 124.508 215.127 124.18C215.219 123.853 215.238 123.509 215.183 123.173C215.128 122.837 215 122.517 214.808 122.236C214.616 121.955 214.365 121.72 214.072 121.546L214.821 116.279L211.731 115.043L210.778 122.496C210.519 123.008 210.457 123.596 210.603 124.15C210.749 124.704 211.094 125.186 211.571 125.503C212.048 125.82 212.625 125.951 213.193 125.871C213.76 125.791 214.279 125.506 214.65 125.069Z" fill="#FFB7B7"/>
<path d="M191.381 176.765L188.337 176.764L186.889 165.024L191.381 165.024L191.381 176.765Z" fill="#FFB7B7"/>
<path d="M192.157 179.715L182.342 179.715V179.591C182.342 178.577 182.745 177.606 183.461 176.889C184.178 176.173 185.149 175.771 186.162 175.77L192.157 175.771L192.157 179.715Z" fill="#2F2E41"/>
<path d="M201.56 176.765L198.516 176.764L197.068 165.024L201.561 165.024L201.56 176.765Z" fill="#FFB7B7"/>
<path d="M202.337 179.715L192.522 179.715V179.591C192.522 178.577 192.924 177.606 193.641 176.889C194.357 176.173 195.329 175.771 196.342 175.77L202.337 175.771L202.337 179.715Z" fill="#2F2E41"/>
<path d="M207.689 77.9866L210.971 76.8021C210.971 76.8021 212.365 77.098 212.365 80.876C212.365 84.654 216.064 119.889 216.064 119.889L209.589 121.594L205.93 88.1647L207.689 77.9866Z" fill="#2F2E41"/>
<path d="M185.756 77.9866L182.474 76.8021C182.474 76.8021 181.081 77.098 181.081 80.876C181.081 84.654 177.381 119.889 177.381 119.889L183.856 121.594L187.516 88.1647L185.756 77.9866Z" fill="#2F2E41"/>
<path d="M185.798 118.172L184.901 144.64L186.887 173.918L192.005 174.036L192.75 146.725L196.971 133.069L196.545 173.318L202.34 173.249L205.93 145.558C205.93 145.558 210.67 122.642 208.041 118.172L195.936 114.147L185.798 118.172Z" fill="#2F2E41"/>
<path d="M185.897 114.983L185.605 121.35C185.605 121.35 189.689 123.383 196.868 122.145C204.047 120.906 208.819 121.723 208.819 121.723L208.268 113.606L185.897 114.983Z" fill="#E5E5E5"/>
<path d="M182.343 76.8962L191.783 72.7596L192.346 70.593L201.53 70.8591L201.927 73.0724L210.971 76.8021L206.986 90.6588L207.395 100.407L212.365 118.172C212.365 118.172 208.173 121.732 198.103 120.201L196.365 116.699L195.302 120.402C195.302 120.402 186.472 123.65 184.025 119.422L185.798 88.8749L182.343 76.8962Z" fill="#2F2E41"/>
<path d="M196.855 68.5577C200.222 68.5577 202.953 65.8275 202.953 62.4596C202.953 59.0917 200.222 56.3614 196.855 56.3614C193.487 56.3614 190.756 59.0917 190.756 62.4596C190.756 65.8275 193.487 68.5577 196.855 68.5577Z" fill="#FFB7B7"/>
<path d="M204.1 60.0966C203.991 59.6003 203.782 59.1317 203.484 58.7197C203.366 57.5804 202.985 56.4839 202.374 55.5157C202.134 55.0619 201.794 54.6691 201.379 54.3673C200.903 54.0936 200.361 53.9584 199.813 53.977C199.714 53.9753 199.535 54.0054 199.374 54.0128C199.271 53.9809 199.167 53.9524 199.063 53.9257C199.002 53.7904 198.882 53.3962 198.848 53.4229L198.394 53.7838C198.202 53.7504 198.009 53.7245 197.815 53.7038C197.744 53.5026 197.674 53.3014 197.603 53.1002C197.489 53.2802 197.388 53.4687 197.303 53.6642C197.11 53.6548 196.917 53.6514 196.724 53.6543L196.338 53.2834C196.315 53.3868 196.263 53.4814 196.187 53.5555C196.112 53.6296 196.016 53.68 195.912 53.7006C195.735 53.7188 195.558 53.7426 195.381 53.771C195.367 53.7709 195.352 53.771 195.338 53.7706C194.387 53.7469 193.364 53.7043 192.569 54.2263C192.197 54.4817 191.894 54.8255 191.688 55.2267C191.591 55.2928 191.493 55.3585 191.398 55.4287C191.079 55.6462 190.803 55.9202 190.583 56.2372C190.423 56.5106 190.301 56.8049 190.222 57.1116C189.918 58.0349 189.778 59.0038 189.806 59.9752C189.839 60.9532 190.208 61.8901 190.851 62.6276C191.259 63.0657 191.777 63.3892 192.186 63.8268C193.026 64.7279 193.184 65.9846 193.903 66.938C194.664 67.9464 196.052 68.61 197.271 68.8002C198.004 68.9107 198.752 68.8752 199.471 68.6958C200.19 68.5164 200.867 68.1967 201.462 67.7549C201.748 67.556 201.991 67.3015 202.176 67.0068C202.599 66.2748 202.42 65.3549 202.577 64.5241C202.871 62.967 204.357 61.6603 204.1 60.0966Z" fill="#2F2E41"/>
<path d="M30.99 54.181L30.6394 53.7101L64.4364 28.5485L97.5743 53.2659L131.166 16.7949L131.226 16.7702L163.826 3.31523L164.05 3.85808L131.51 17.2881L97.6474 54.053L64.4361 29.2807L30.99 54.181Z" fill="#3F3D56"/>
</g>
<defs>
<clipPath id="clip0_12_1782">
<rect width="245.211" height="180" fill="white"/>
</clipPath>
</defs>
</svg>
