<svg width="26" height="45" viewBox="0 0 26 45" fill="black" xmlns="http://www.w3.org/2000/svg">
<path d="M20.2763 28.6852C20.0501 28.8204 19.816 28.946 19.5739 29.0617C17.6061 30.0003 15.326 30.1603 13.2339 29.5066C11.1418 28.8529 9.40855 27.4389 8.41443 25.5749L6.62248 22.2053L7.82527 21.6303L9.61723 24.9999C10.0286 25.7744 10.5968 26.4645 11.2895 27.0307C11.9822 27.5969 12.7857 28.0281 13.6542 28.2997C14.5227 28.5713 15.4391 28.678 16.3511 28.6136C17.2631 28.5493 18.1527 28.3152 18.9692 27.9246C19.7857 27.5341 20.5131 26.9949 21.1098 26.3377C21.7065 25.6805 22.1608 24.9183 22.4467 24.0945C22.7327 23.2708 22.8446 22.4017 22.7763 21.5369C22.7079 20.6722 22.4605 19.8286 22.0483 19.0545L14.5227 4.90396C14.111 4.12993 13.5426 3.44036 12.85 2.87464C12.1573 2.30892 11.3539 1.87812 10.4856 1.60683C9.61735 1.33554 8.70126 1.22908 7.78962 1.29354C6.87798 1.35799 5.98866 1.59209 5.17242 1.98247C4.35619 2.37284 3.62903 2.91186 3.03246 3.56873C2.4359 4.2256 1.98161 4.98747 1.69553 5.81083C1.40946 6.63419 1.29719 7.50293 1.36516 8.36744C1.43313 9.23195 1.67999 10.0753 2.09165 10.8493L4.75608 15.8593L3.55329 16.4343L0.888856 11.4244C-0.102576 9.55871 -0.27203 7.39603 0.41775 5.41191C1.10753 3.42779 2.60007 1.7847 4.56714 0.843965C6.53421 -0.0967665 8.81476 -0.258112 10.9073 0.395414C12.9998 1.04894 14.7329 2.46383 15.7255 4.32892L23.251 18.4795C24.1803 20.2271 24.3905 22.2402 23.8406 24.1268C23.2908 26.0133 22.0202 27.6382 20.2763 28.6852Z" fill="gray"/>
<path d="M21.2694 43.6916C21.0463 43.8249 20.8148 43.949 20.5751 44.0638C18.6072 45.0024 16.3271 45.1624 14.235 44.5087C12.1429 43.855 10.4096 42.4411 9.41555 40.577L1.88997 26.4265C0.89776 24.5607 0.72776 22.3976 1.41736 20.413C2.10696 18.4284 3.59968 16.7849 5.56714 15.844C7.5346 14.903 9.81562 14.7418 11.9084 15.3958C14.0012 16.0497 15.7344 17.4653 16.7266 19.331L18.7035 23.0484L17.5007 23.6234L15.5238 19.906C15.1121 19.132 14.5437 18.4424 13.851 17.8767C13.1583 17.311 12.355 16.8802 11.4867 16.6089C10.6185 16.3376 9.70235 16.2312 8.79071 16.2956C7.87907 16.3601 6.98975 16.5942 6.17351 16.9846C5.35728 17.3749 4.63012 17.9139 4.03356 18.5708C3.43699 19.2277 2.9827 19.9896 2.69662 20.8129C2.41055 21.6363 2.29829 22.505 2.36626 23.3695C2.43423 24.234 2.68109 25.0774 3.09275 25.8514L10.6183 40.002C11.0297 40.7765 11.5979 41.4666 12.2906 42.0328C12.9833 42.599 13.7868 43.0302 14.6553 43.3018C15.5238 43.5734 16.4402 43.6801 17.3522 43.6157C18.2641 43.5513 19.1538 43.3172 19.9703 42.9267C20.7868 42.5362 21.5142 41.9969 22.1109 41.3397C22.7076 40.6826 23.1619 39.9203 23.4478 39.0966C23.7338 38.2729 23.8457 37.4038 23.7774 36.539C23.709 35.6742 23.4616 34.8307 23.0494 34.0566L20.4589 29.1858L21.6617 28.6108L24.2521 33.4816C25.1796 35.231 25.3879 37.2449 24.8367 39.1319C24.2854 41.0189 23.0139 42.6441 21.2694 43.6916Z" fill="gray"/>
</svg>
